<?xml version="1.0" encoding="UTF-8" standalone="no"?>
<svg
   width="590"
   height="694"
   viewBox="0 0 590 694"
   fill="none"
   version="1.1"
   id="svg48"
   sodipodi:docname="lurk_lab_logo.svg"
   inkscape:version="1.2.2 (b0a84865, 2022-12-01)"
   inkscape:export-filename="lurk_lab_logo.png"
   inkscape:export-xdpi="200"
   inkscape:export-ydpi="200"
   xmlns:inkscape="http://www.inkscape.org/namespaces/inkscape"
   xmlns:sodipodi="http://sodipodi.sourceforge.net/DTD/sodipodi-0.dtd"
   xmlns="http://www.w3.org/2000/svg"
   xmlns:svg="http://www.w3.org/2000/svg">
  <defs
     id="defs52" />
  <sodipodi:namedview
     id="namedview50"
     pagecolor="#505050"
     bordercolor="#eeeeee"
     borderopacity="1"
     inkscape:showpageshadow="0"
     inkscape:pageopacity="0"
     inkscape:pagecheckerboard="0"
     inkscape:deskcolor="#505050"
     showgrid="false"
     inkscape:zoom="0.88712504"
     inkscape:cx="284.06368"
     inkscape:cy="511.76551"
     inkscape:window-width="1439"
     inkscape:window-height="842"
     inkscape:window-x="0"
     inkscape:window-y="25"
     inkscape:window-maximized="0"
     inkscape:current-layer="g46"
     showguides="true">
    <sodipodi:guide
       position="-56.539767,-410.47938"
       orientation="0,-1"
       id="guide1245"
       inkscape:locked="false" />
  </sodipodi:namedview>
  <g
     inkscape:groupmode="layer"
     id="layer2"
     inkscape:label="Layer 1">
    <path
       style="fill:#000000;stroke-width:1.12724"
       d="M 270.53683,692.54627 C 217.77803,687.78419 166.1646,669.72166 123.43243,641.06588 108.87067,631.30089 99.193317,623.39448 85.259435,609.87843 34.532587,560.67276 5.678517,495.6738 1.2449002,420.62067 c -1.44903602,-24.52956 0.9030006,-65.73151 4.5458117,-79.63153 1.2940934,-4.93793 5.4327461,-12.96323 6.6851451,-12.96323 1.066802,0 2.30038,13.75165 1.921237,21.4175 -0.666052,13.46684 0.08132,45.30814 1.337657,56.98993 6.969637,64.80578 30.587425,117.93803 71.055532,159.85157 30.814177,31.91479 65.036467,52.92284 107.741097,66.13908 27.02712,8.36436 49.84081,11.68707 79.95078,11.64446 67.53936,-0.0956 125.92556,-23.63383 169.15571,-68.19473 22.3039,-22.99049 36.7593,-46.47613 47.38316,-76.9833 14.75923,-42.38218 17.60449,-83.17882 8.83768,-126.71893 -17.82768,-88.54075 -86.63538,-160.63417 -175.58695,-183.97159 -22.51889,-5.90808 -33.89234,-7.25791 -61.06196,-7.247 -25.37535,0.0102 -31.49996,0.62547 -55.79823,5.60548 -7.12977,1.46127 -17.88879,3.45134 -23.90895,4.42238 -12.33145,1.98903 -22.22402,5.86653 -24.9703,9.78739 -1.01552,1.44986 -1.8464,4.62024 -1.8464,7.04527 0,7.81698 -2.40664,13.35148 -8.44997,19.4322 -6.1746,6.21281 -12.49906,8.93387 -28.49175,12.25842 -4.50845,0.93722 -10.20696,2.72934 -12.66338,3.98252 -7.781745,3.96994 -7.29728,11.47663 1.01434,15.7169 4.85365,2.47616 8.01023,6.1527 8.01023,9.32972 0,1.79978 -1.27391,2.00365 -12.52021,2.00365 -11.484783,0 -12.452411,0.16314 -11.700485,1.97267 2.905121,6.99122 3.965649,12.59385 3.309228,17.4822 l -0.720347,5.36442 -3.307734,-2.78328 c -5.203759,-4.37867 -9.585618,-4.62212 -21.27716,-1.18212 -11.671979,3.43424 -16.234465,3.18995 -20.249827,-1.0842 -2.239691,-2.38404 -2.503477,-3.59151 -2.027845,-9.28245 0.300715,-3.59805 0.963816,-7.5303 1.473557,-8.73835 0.83553,-1.98014 0.555856,-1.93231 -2.839898,0.48568 -3.983158,2.83625 -13.233075,4.29261 -18.641931,2.93507 -7.587723,-1.9044 -16.33037,-14.34513 -16.33037,-23.23802 0,-9.78956 5.313632,-16.00157 15.908305,-18.59793 8.912193,-2.18405 12.598421,-4.67399 15.548211,-10.50238 3.064365,-6.05476 3.599007,-9.66092 3.984649,-26.87634 0.384591,-17.16847 1.521688,-21.45411 7.498488,-28.26131 2.881275,-3.28159 3.365875,-4.59299 2.76411,-7.48008 -2.896535,-13.89676 -1.638809,-21.97089 5.646508,-36.24849 5.005243,-9.80917 5.01157,-9.83678 5.01157,-21.86768 0,-18.132417 3.452837,-27.476322 19.206898,-51.976814 11.509751,-17.8998 16.553973,-28.370519 18.883053,-39.197158 1.891,-8.7902437 2.12139,-9.2270622 3.85275,-7.3048902 3.56268,3.9553286 7.60179,13.5891152 8.34356,19.9004372 0.41239,3.508768 1.12818,6.379579 1.59066,6.379579 3.08593,0 14.39431,-17.33069 14.71059,-22.5447363 0.0564,-0.9299704 0.79937,-0.1690855 1.65102,1.6908552 2.24085,4.8938121 1.9883,15.7893701 -0.60059,25.9118391 -1.2379,4.840164 -3.01899,13.574586 -3.95798,19.409824 -0.93897,5.835239 -2.46244,12.416954 -3.38544,14.626034 -2.36684,5.664641 -2.25237,5.684787 3.2873,0.578498 6.96031,-6.415779 13.35281,-8.057443 36.17864,-9.291056 10.53966,-0.569612 22.20656,-1.815933 25.92644,-2.769604 9.29584,-2.383186 19.57171,-7.572527 27.03715,-13.653827 l 6.26727,-5.105287 2.75482,6.229131 c 1.51515,3.426021 3.36677,9.550305 4.11471,13.609519 l 1.35988,7.380388 10.2321,0.0097 c 32.68899,0.03075 73.80613,6.901154 107.73808,18.002271 89.69349,29.343977 161.0787,90.087277 202.04823,171.927437 15.41914,30.80109 25.01333,61.74202 30.93377,99.76046 2.86206,18.37884 2.86456,66.13588 0.004,84.54276 -8.88446,57.17765 -30.15103,106.77492 -63.55954,148.23164 -11.64366,14.44868 -33.85784,36.00698 -48.13425,46.71309 -38.9741,29.22734 -80.62277,46.22859 -133.12863,54.34396 -14.17521,2.19095 -57.05385,3.71735 -70.4523,2.50799 z"
       id="path467" />
    <path
       style="fill:#000000;stroke-width:1.12724"
       d="M 264.33703,692.06016 C 207.68524,686.51132 147.79426,662.19557 104.26941,627.07267 90.768837,616.17823 69.803573,594.88031 59.560336,581.65419 27.890597,540.76208 8.5652562,491.80302 2.1620507,436.24065 -0.63589717,411.96208 0.96193103,362.40856 5.1342072,344.065 c 1.6991303,-7.47028 5.5227168,-16.03909 7.1569888,-16.03909 0.793757,0 1.902512,7.49102 2.502659,16.90855 0.05926,0.92997 -0.256643,7.77794 -0.702012,15.2177 -0.704677,11.77141 0.372736,36.42205 2.26635,51.85289 2.538108,20.68276 5.291866,33.20371 12.023902,54.67099 17.800411,56.76239 50.334958,100.99639 98.106185,133.38529 10.47727,7.10359 42.60391,23.69523 52.74237,27.23852 12.34531,4.31456 14.52483,5.01663 21.98112,7.08058 7.56095,2.09293 15.30022,3.90717 22.54474,5.28496 1.85994,0.35373 4.64985,0.88845 6.1998,1.18825 17.84483,3.45175 56.49289,4.3735 75.52487,1.80126 40.99046,-5.54001 76.22719,-18.8252 108.21473,-40.79983 11.90041,-8.17529 25.97362,-20.55576 35.12062,-30.89628 7.20058,-8.14013 18.98675,-23.57238 18.98675,-24.86035 0,-0.40228 1.14132,-2.32971 2.53628,-4.28316 9.78373,-13.70089 21.45952,-41.73507 27.77322,-66.68496 10.07054,-39.79584 8.46544,-87.41454 -4.25559,-126.25053 -5.34425,-16.31543 -6.64992,-19.56035 -13.62288,-33.8564 -19.44038,-39.85685 -51.88787,-75.41602 -90.21037,-98.86147 -7.3449,-4.49356 -28.86499,-15.32343 -35.50796,-17.8692 -1.23996,-0.47518 -5.76792,-2.22054 -10.06212,-3.87857 -9.57028,-3.69517 -25.1607,-7.70954 -42.35439,-10.9058 -10.39504,-1.9324 -17.54129,-2.42736 -36.07158,-2.49833 -26.92643,-0.10314 -34.82961,0.67988 -60.86856,6.03063 -5.89104,1.21055 -15.7502,3.00967 -21.90927,3.99806 -19.0475,3.05668 -26.06973,7.32905 -26.40004,16.06202 -0.32245,8.52461 -2.2671,13.72372 -7.09035,18.95633 -2.49142,2.70288 -6.79467,6.0107 -9.56277,7.35071 -5.25891,2.5458 -19.64343,6.6331 -23.52789,6.68536 -1.23996,0.0167 -4.90001,1.26205 -8.13344,2.76747 -4.30651,2.00504 -6.07842,3.53184 -6.62467,5.70831 -0.9631,3.83727 1.06127,8.21797 4.38086,9.48007 4.69403,1.78466 9.81363,6.89557 9.81363,9.79695 v 2.74488 l -11.81857,-0.23227 c -6.50022,-0.12775 -12.117445,0.0666 -12.482727,0.43188 -0.365282,0.36528 0.07416,2.10624 0.976533,3.8688 2.268593,4.43112 3.33452,11.73148 2.422637,16.59224 l -0.764538,4.07533 -3.290309,-2.76861 c -5.017854,-4.22224 -9.72295,-4.61374 -19.223447,-1.59953 -11.225395,3.56146 -17.870077,3.52133 -21.77827,-0.13155 -2.764071,-2.58351 -2.973067,-3.38112 -2.510611,-9.58152 0.277447,-3.71988 0.916374,-7.72833 1.419839,-8.90768 0.796775,-1.8664 0.440795,-1.79337 -2.747209,0.56362 -3.147085,2.32674 -4.928545,2.70788 -12.656814,2.70788 H 24.65769 l -5.458289,-5.72188 c -7.546732,-7.91117 -9.8980606,-17.34203 -6.381455,-25.59515 2.406386,-5.64753 6.222953,-8.36269 15.090761,-10.73576 14.62568,-3.91389 18.441945,-11.3533 18.784002,-36.61746 0.232461,-17.16951 1.6903,-22.84086 7.399465,-28.78571 2.773157,-2.88764 2.882422,-3.89444 1.679094,-15.47172 -1.001808,-9.63843 0.908228,-17.21894 7.449388,-29.56496 4.332533,-8.17737 4.413798,-8.55098 4.426932,-20.35224 0.02123,-19.072126 3.560648,-28.613714 19.721801,-53.1661 C 100.13258,30.2083 103.52664,22.646369 106.84822,6.1998025 l 0.91064,-4.5089473 3.62076,4.975224 c 3.94505,5.4208228 6.98025,14.1297898 6.98025,20.0285808 0,2.057404 0.46415,3.740734 1.03143,3.740734 2.35573,0 10.40788,-10.935132 12.7185,-17.272232 l 2.48674,-6.8201165 1.41233,3.3100889 c 1.94832,4.5662916 1.82552,16.6094296 -0.25216,24.7275886 -2.40646,9.402865 -3.45538,14.457087 -5.02973,24.235591 -0.74863,4.649852 -2.30568,10.430996 -3.46012,12.846987 l -2.09897,4.392711 4.20483,-4.218822 c 8.23892,-8.26631 12.28285,-9.431826 37.45833,-10.795991 28.07259,-1.521149 40.08173,-5.200997 53.02279,-16.247291 3.31232,-2.827341 6.32364,-5.14062 6.69186,-5.14062 1.26564,0 6.66644,15.417783 7.43787,21.233035 l 0.77213,5.820649 11.40896,0.0351 c 69.69111,0.214434 145.62889,25.005301 203.60283,66.468758 30.52071,21.8287 60.71658,52.49178 81.0375,82.2914 29.35616,43.04936 46.1973,85.67963 54.99658,139.21375 3.1742,19.3116 2.83824,71.22087 -0.59094,91.30618 -11.03954,64.66055 -37.24738,118.0401 -79.06788,161.04367 -17.32466,17.81476 -27.36252,26.27036 -45.94564,38.70322 -38.78273,25.94723 -85.28187,41.84434 -136.11653,46.53545 -14.07579,1.29894 -46.27315,1.27505 -59.74355,-0.0443 z"
       id="path469" />
    <path
       style="fill:#000000;stroke-width:1.12724"
       d="m 271.66407,692.56659 c -29.98223,-3.49799 -49.09815,-7.23735 -69.88868,-13.67128 -32.08497,-9.92914 -65.85029,-27.55386 -95.40545,-49.79943 -3.63522,-2.73614 -13.991771,-12.37401 -23.014566,-21.4175 -15.092029,-15.1266 -19.19908,-19.64799 -24.510842,-26.98359 -1.05549,-1.45764 -3.463788,-4.75481 -5.351773,-7.32704 C 16.556948,523.04565 -3.3871294,450.91926 1.0340714,383.65453 2.8909895,355.40314 5.0538371,341.09094 8.5463,333.94391 c 1.590535,-3.2549 3.302738,-5.918 3.804893,-5.918 1.148453,0 2.462751,13.36952 2.050054,20.85388 -0.69878,12.67252 0.02212,44.82358 1.289029,57.48908 5.422433,54.20882 26.393753,107.2478 57.416582,145.21342 33.198632,40.62835 81.812102,71.40317 133.023872,84.2109 50.72429,12.68582 99.69448,11.47074 146.69439,-3.63989 57.83711,-18.59483 104.9503,-59.13859 129.40201,-111.35826 26.34457,-56.26214 29.65852,-121.38786 9.15766,-179.96659 -8.15555,-23.30349 -23.86818,-51.23366 -40.178,-71.41885 -14.65135,-18.13264 -38.86393,-39.47617 -58.83203,-51.86079 -56.38865,-34.97334 -120.58343,-45.44004 -187.21766,-30.52507 -5.26983,1.17956 -14.83329,2.95164 -21.25212,3.93797 -12.10659,1.86029 -20.38832,4.78952 -24.5228,8.67367 -1.75339,1.6472 -2.43712,3.71115 -2.52525,7.62277 -0.17148,7.61146 -2.98116,14.67991 -7.82819,19.69377 -5.71599,5.91274 -9.95034,7.84672 -25.01414,11.4248 -15.49807,3.68125 -21.12556,6.29494 -22.1247,10.27583 -0.98426,3.92161 1.12989,8.11346 4.89919,9.71394 4.81715,2.04539 9.3163,6.67678 9.3163,9.59013 0,2.60802 -0.11736,2.63188 -11.81857,2.40192 -6.50022,-0.12775 -12.042521,-0.008 -12.316229,0.26537 -0.273708,0.27372 0.514924,3.49701 1.752516,7.16288 1.66655,4.9365 2.055681,8.0793 1.500317,12.11728 l -0.749848,5.45205 -3.361431,-2.82846 c -4.858829,-4.08843 -8.390467,-4.60953 -16.133862,-2.38057 -17.336179,4.99027 -20.993973,5.06589 -25.531993,0.52788 -2.011846,-2.01185 -2.274322,-3.3434 -1.827506,-9.27103 0.286965,-3.80697 0.942691,-7.91017 1.457169,-9.11822 0.837198,-1.96582 0.534103,-1.91069 -2.886622,0.52508 -5.684918,4.04802 -16.213367,4.51534 -22.472559,0.99748 -9.19893,-5.17008 -14.187431,-17.25546 -11.332106,-27.45367 1.944173,-6.94392 5.95773,-10.33388 14.630097,-12.35701 8.599107,-2.00603 12.126654,-4.36601 15.473547,-10.35204 3.168385,-5.66675 5.144795,-18.04938 4.205719,-26.34971 -0.41132,-3.63559 -0.132889,-10.04248 0.63402,-14.58924 1.150176,-6.81901 2.077538,-8.92741 5.837427,-13.27162 4.19916,-4.85175 4.414354,-5.44572 3.551382,-9.80232 -0.50525,-2.55069 -0.847924,-8.61311 -0.761499,-13.47206 0.146603,-8.24217 0.544295,-9.60244 5.932139,-20.29026 L 67.6625,114.41454 67.64835,102.91584 C 67.640576,96.591562 68.168952,88.982713 68.822526,86.007291 70.366759,78.977114 77.146241,65.942753 89.008009,47.198296 101.2019,27.929003 106.33416,15.321167 107.03021,2.9251935 c 0.10574,-1.8830693 4.78293,3.2291565 7.08985,7.7492845 1.25604,2.461071 2.87259,7.969578 3.59232,12.241126 l 1.30861,7.76645 3.55225,-2.989019 c 4.21236,-3.54447 7.71306,-8.963977 10.4534,-16.183108 l 1.99513,-5.2559945 1.24427,4.4818825 c 1.87026,6.736663 1.51556,15.810743 -0.96551,24.700243 -1.22228,4.379407 -3.01515,13.288753 -3.98414,19.798546 -0.96899,6.509792 -2.76024,13.756509 -3.98056,16.103815 l -2.21878,4.26783 3.96631,-3.966311 c 8.14943,-8.149424 12.88468,-9.505713 37.74769,-10.811841 10.84965,-0.569966 22.77018,-1.815666 26.49006,-2.768223 9.4013,-2.407411 21.60884,-8.612146 27.51982,-13.987521 2.73629,-2.488354 5.35572,-4.289031 5.82095,-4.001505 1.50395,0.929492 6.53857,15.568744 7.25029,21.081749 l 0.69123,5.354375 9.79424,0.01784 c 15.82756,0.02884 50.11687,3.387123 63.1076,6.18075 1.0567,0.22724 6.99383,1.473642 13.19363,2.769783 16.26508,3.400406 41.69384,11.341505 56.36184,17.601131 20.28901,8.658424 37.78335,17.445184 48.7306,24.475584 2.62259,1.68425 5.0283,3.06228 5.34601,3.06228 0.61702,0 29.44602,20.16482 33.48424,23.421 20.43902,16.48077 44.46965,41.5551 59.11777,61.68538 6.84736,9.41004 18.46158,26.44046 18.46158,27.07101 0,0.24589 1.59628,3.1325 3.54728,6.41467 9.40821,15.82746 23.13544,46.93967 28.24685,64.0203 9.26619,30.96458 13.33084,56.03409 14.11248,87.04138 0.65346,25.92248 -0.41157,40.01378 -4.92304,65.13559 -4.87459,27.14377 -11.97639,48.95787 -24.2209,74.39763 -18.48408,38.40336 -35.08146,61.04797 -66.51834,90.75423 -3.94339,3.7263 -8.94519,8.13715 -11.11512,9.8019 -2.16993,1.66475 -5.9173,4.57622 -8.32746,6.46995 -2.41018,1.89372 -4.69284,3.44375 -5.07257,3.4445 -0.37974,7.6e-4 -2.2122,1.31773 -4.07214,2.92662 -1.85994,1.60888 -5.15711,3.90521 -7.32704,5.10295 -2.16993,1.19776 -5.4671,3.15239 -7.32704,4.34364 -3.94721,2.5281 -30.61583,15.91923 -37.19882,18.67867 -17.60358,7.37903 -43.38406,14.36881 -65.94335,17.87904 -5.88981,0.91644 -12.48415,1.98805 -14.65408,2.38134 -4.64168,0.84128 -53.99693,1.6529 -59.74355,0.98245 z"
       id="path471" />
    <path
       style="fill:#000000;stroke-width:1.12724"
       d="m 272.22769,692.51861 c -1.85994,-0.21682 -8.20065,-0.94286 -14.09046,-1.61342 -15.3673,-1.74957 -32.1349,-5.11291 -47.41264,-9.51031 C 140.91857,661.30261 83.769866,620.05442 46.766263,563.05479 36.735223,547.60317 33.028052,540.74646 25.293868,523.33984 19.138079,509.48557 11.816687,488.14836 9.5254171,477.38479 6.8898228,465.00372 4.4125862,451.93471 3.4067435,445.10489 -0.90822383,415.80559 0.65410745,359.86454 6.3589257,339.39865 c 1.6043349,-5.75551 4.6096483,-11.25886 6.1911703,-11.33732 0.985101,-0.0489 2.229877,13.95018 1.851151,20.81846 -0.69878,12.67252 0.02212,44.82358 1.289029,57.48908 5.422433,54.20882 26.393753,107.2478 57.416582,145.21342 38.118692,46.64951 94.384002,78.85508 155.722212,89.13347 79.88809,13.38678 159.875,-9.73774 211.67847,-61.19706 24.31607,-24.15451 40.31044,-50.20512 51.62684,-84.08649 14.83108,-44.4043 16.69665,-89.57912 5.52016,-133.67013 -8.29869,-32.7381 -24.8176,-65.58279 -46.44775,-92.35248 -14.65135,-18.13264 -38.86393,-39.47617 -58.83203,-51.86079 -56.59742,-35.10282 -119.32264,-45.28185 -187.78128,-30.47307 -5.57982,1.20701 -15.18435,2.99679 -21.34342,3.97729 -11.76117,1.87236 -19.8167,4.77644 -23.90636,8.61848 -1.80899,1.69946 -2.45553,3.65951 -2.49174,7.55379 -0.15622,16.80844 -9.46571,25.49177 -33.54943,31.29293 -6.74834,1.62549 -14.1638,3.92101 -16.47881,5.10114 -7.189897,3.6652 -6.93642,11.40103 0.49672,15.15911 5.53237,2.79709 8.78495,6.18992 8.78495,9.16374 0,2.62631 -0.0994,2.64663 -11.81857,2.41632 -6.50022,-0.12775 -12.086701,0.0358 -12.414405,0.36356 -0.327704,0.3277 0.250586,2.57591 1.285092,4.99603 1.921009,4.494 2.670645,17.72616 1.093578,19.30324 -0.472737,0.47272 -1.353944,-0.024 -1.958239,-1.10378 -1.430809,-2.55672 -6.884237,-5.34497 -10.454008,-5.34497 -1.548735,0 -6.992767,1.31948 -12.097849,2.93217 -10.538221,3.32903 -15.558891,3.09896 -19.824584,-0.90845 -2.43249,-2.28521 -2.69235,-3.33527 -2.312469,-9.34434 0.235386,-3.72341 0.863346,-7.73216 1.395466,-8.90833 0.812731,-1.79642 0.265065,-1.66118 -3.423746,0.84543 -5.641933,3.83379 -15.21409,4.14222 -21.947333,0.70718 -8.631992,-4.40372 -13.9965861,-16.9962 -11.395751,-26.74961 2.070304,-7.76385 5.801498,-11.11263 14.623864,-13.12501 8.690095,-1.98223 12.265741,-4.35566 15.631874,-10.3761 3.085755,-5.51897 5.189031,-18.21004 4.266295,-25.74261 -0.80903,-6.60437 1.054103,-19.75765 3.456751,-24.40386 0.90843,-1.7567 2.97423,-4.51655 4.590666,-6.13299 2.407452,-2.40745 2.803828,-3.58802 2.191696,-6.52777 -2.914507,-13.99684 -1.725169,-21.68232 5.593005,-36.14186 l 5.047486,-9.97301 v -12.65941 c 0,-18.033609 3.082876,-25.957931 21.349225,-54.876705 C 99.788562,30.080967 104.29553,20.24691 106.35001,9.2940269 l 1.42616,-7.6031717 3.64046,5.6361841 c 3.90186,6.0408757 6.94324,14.7714557 6.94324,19.9312387 0,4.103378 1.04828,4.005172 5.19205,-0.486404 5.19734,-5.633596 6.11084,-7.06471 8.91768,-13.970814 l 2.60909,-6.4195177 1.29706,4.8169097 c 1.71387,6.364847 1.19454,17.189266 -1.19335,24.873126 -1.05969,3.409891 -2.77175,11.520139 -3.80458,18.022774 -1.03285,6.502633 -2.84981,14.020136 -4.03769,16.70556 l -2.15981,4.882591 5.71719,-5.140238 c 7.82943,-7.039333 13.42715,-8.539239 36.25034,-9.71325 27.13583,-1.395851 39.49139,-5.16409 52.99434,-16.162402 l 6.51518,-5.306687 2.73151,6.176433 c 1.50234,3.397037 3.29757,9.42698 3.98943,13.399871 l 1.2579,7.223438 18.28672,0.721209 c 40.19229,1.585142 78.38129,9.191334 115.11989,22.928695 11.62953,4.348537 53.01413,23.812888 56.35075,26.503358 0.62608,0.50484 7.73266,5.27095 15.7924,10.59135 20.0045,13.20538 33.22431,24.08581 51.91239,42.72598 60.19573,60.0414 93.87036,137.43609 96.00008,220.63782 1.32009,51.57179 -8.12038,95.86637 -30.17421,141.57713 -10.24211,21.22871 -25.00787,44.94589 -36.55795,58.72041 -14.8113,17.66383 -24.96502,27.46096 -43.41787,41.8931 -5.88981,4.60647 -10.87784,8.75585 -11.08449,9.22083 -0.20667,0.46499 -0.81191,0.84543 -1.34498,0.84543 -0.53308,0 -5.69019,3.06397 -11.46024,6.80882 -18.69395,12.13264 -48.13851,25.35172 -71.77583,32.22363 -24.78673,7.20606 -59.03808,11.75839 -86.70813,11.52432 -10.98094,-0.0929 -21.48711,-0.3463 -23.34705,-0.56314 z"
       id="path473" />
    <path
       style="fill:#000000;stroke-width:1.12724"
       d="m 271.10045,692.49602 c -35.64669,-3.43488 -71.98376,-12.67785 -100.61295,-25.59266 -6.35869,-2.86844 -11.79375,-5.21535 -12.07791,-5.21535 -0.28417,0 -5.34915,-2.78991 -11.25551,-6.1998 -5.90637,-3.4099 -10.96676,-6.19981 -11.24532,-6.19981 -0.27857,0 -4.72146,-2.86765 -9.87311,-6.37256 C 49.863315,591.09222 6.3506146,513.2993 1.2403762,419.80421 c -1.02704832,-18.7905 0.2356333,-50.1845 2.7166002,-67.54271 1.7215253,-12.04474 6.3070306,-24.99184 8.3944926,-23.70172 1.19655,0.7395 2.46409,13.24029 2.060383,20.32001 -0.712136,12.48858 0.0056,44.76456 1.278424,57.48908 5.422433,54.20882 26.393753,107.2478 57.416582,145.21342 38.118692,46.64951 94.384002,78.85508 155.722212,89.13347 79.88809,13.38678 159.875,-9.73774 211.67847,-61.19706 24.31607,-24.15451 40.31044,-50.20512 51.62684,-84.08649 14.83108,-44.4043 16.69665,-89.57912 5.52016,-133.67013 -8.29869,-32.7381 -24.8176,-65.58279 -46.44775,-92.35248 -14.65135,-18.13264 -38.86393,-39.47617 -58.83203,-51.86079 -56.59742,-35.10282 -119.32264,-45.28185 -187.78128,-30.47307 -5.57982,1.20701 -15.18435,2.99679 -21.34342,3.97729 -11.85862,1.88787 -19.81843,4.77808 -24.01382,8.71944 -1.94381,1.82612 -2.55032,3.64954 -2.55032,7.66739 0,16.62264 -9.29536,25.27617 -33.38339,31.07837 -6.74834,1.62549 -14.1638,3.92101 -16.47881,5.10114 -7.523142,3.83508 -6.904907,11.41283 1.27144,15.58409 4.91277,2.50631 8.01023,6.15828 8.01023,9.4442 0,1.92262 -0.85847,2.09407 -9.2997,1.8573 -14.828288,-0.41593 -15.872016,-0.27549 -14.89801,2.00454 2.445185,5.72388 3.876509,13.70058 3.235118,18.02914 l -0.708891,4.7841 -3.341597,-2.81177 c -5.849726,-4.92222 -7.896398,-4.91813 -25.712575,0.0514 -7.497876,2.0914 -12.30387,1.40265 -15.74088,-2.25589 -2.239691,-2.38403 -2.503477,-3.59151 -2.027845,-9.28244 0.300715,-3.59805 0.945744,-7.48322 1.433399,-8.6337 0.743716,-1.7546 0.116032,-1.60533 -3.893766,0.92594 -5.57378,3.51857 -14.647431,4.1155 -20.054613,1.31935 -5.922723,-3.06276 -11.235858,-10.09524 -12.754702,-16.88216 -2.7966848,-12.4969 3.12818,-22.25863 14.455396,-23.81653 9.838087,-1.35307 15.573357,-6.62039 18.449191,-16.94389 0.690836,-2.47992 1.385775,-11.10328 1.544309,-19.16302 0.343773,-17.4772 1.539566,-22.50384 6.871738,-28.88603 3.090902,-3.69957 3.881323,-5.50547 3.419768,-7.81324 -2.923139,-14.6157 -1.810396,-21.98028 5.504993,-36.43432 l 5.047486,-9.97299 v -12.65941 c 0,-18.201846 2.372404,-24.355176 20.662628,-53.592867 C 99.801843,30.079947 104.26981,20.384025 106.35001,9.2940269 l 1.42616,-7.6031717 3.64046,5.6361841 c 3.90186,6.0408757 6.94324,14.7714557 6.94324,19.9312387 0,4.103378 1.04828,4.005172 5.19205,-0.486404 5.19598,-5.632125 6.11091,-7.064882 8.91123,-13.954928 l 2.60262,-6.4036326 1.22228,4.4021916 c 1.82963,6.589701 1.49436,14.82276 -0.98985,24.307195 -1.22357,4.67149 -3.03227,13.517201 -4.0193,19.657136 -0.98704,6.139935 -2.763,13.354826 -3.94659,16.033093 l -2.15199,4.869574 5.71719,-5.140238 c 7.82943,-7.039333 13.42715,-8.539239 36.25034,-9.71325 27.09624,-1.393815 39.49551,-5.167452 52.92787,-16.108258 l 6.44871,-5.252542 1.56323,3.092438 c 2.14235,4.238105 4.94842,13.411787 5.80602,18.981286 l 0.71085,4.61648 18.30256,0.721834 c 158.42761,6.248218 290.73559,110.391377 326.54375,257.031337 6.75722,27.67186 8.40567,42.34362 8.37793,74.56662 -0.0285,33.08091 -1.79237,48.0765 -8.98463,76.38202 -15.50244,61.01079 -51.22675,118.03306 -96.70889,154.3644 -53.04692,42.3741 -115.29616,63.80531 -185.10835,63.72922 -11.77962,-0.0128 -23.44653,-0.21887 -25.92645,-0.45783 z"
       id="path475" />
    <path
       style="fill:#000000;stroke-width:1.12724"
       d="M 271.10045,692.54032 C 242.70484,689.52516 221.42309,685.11035 198.39368,677.45763 76.031688,636.79655 0.95836749,532.42015 0.96198198,402.96323 0.96261425,380.31845 2.5042853,358.8186 5.1062384,345.16822 c 1.535954,-8.05793 5.7396746,-17.53893 7.3383886,-16.55087 1.119231,0.69173 2.356507,13.43568 1.967225,20.26244 -0.712136,12.48858 0.0056,44.76456 1.278424,57.48908 5.422433,54.20882 26.393753,107.2478 57.416582,145.21342 38.118692,46.64951 94.384002,78.85508 155.722212,89.13347 79.88809,13.38678 159.875,-9.73774 211.67847,-61.19706 24.31607,-24.15451 40.31044,-50.20512 51.62684,-84.08649 14.83108,-44.4043 16.69665,-89.57912 5.52016,-133.67013 -8.29869,-32.7381 -24.8176,-65.58279 -46.44775,-92.35248 -14.65135,-18.13264 -38.86393,-39.47617 -58.83203,-51.86079 -56.59742,-35.10282 -119.32264,-45.28185 -187.78128,-30.47307 -5.57982,1.20701 -15.18435,2.99679 -21.34342,3.97729 -11.85862,1.88787 -19.81843,4.77808 -24.01382,8.71944 -1.94381,1.82612 -2.55032,3.64954 -2.55032,7.66739 0,16.62264 -9.29536,25.27617 -33.38339,31.07837 -6.74834,1.62549 -14.1638,3.92101 -16.47881,5.10114 -7.523142,3.83508 -6.904907,11.41283 1.27144,15.58409 4.91277,2.50631 8.01023,6.15828 8.01023,9.4442 0,1.92262 -0.85847,2.09407 -9.2997,1.8573 -14.828288,-0.41593 -15.872016,-0.27549 -14.89801,2.00454 2.445185,5.72388 3.876509,13.70058 3.235118,18.02914 l -0.708891,4.7841 -3.341597,-2.81177 c -5.849726,-4.92222 -7.896398,-4.91813 -25.712575,0.0514 -7.497876,2.0914 -12.30387,1.40265 -15.74088,-2.25589 -2.239691,-2.38403 -2.503477,-3.59151 -2.027845,-9.28244 0.300715,-3.59805 0.945744,-7.48322 1.433399,-8.6337 0.742538,-1.75182 0.106287,-1.59919 -3.914636,0.93911 -5.658077,3.57179 -14.477209,4.17957 -19.906666,1.37188 -9.940706,-5.14053 -15.7493985,-17.94984 -12.844583,-28.32483 2.032164,-7.25818 5.582286,-10.32578 14.233794,-12.2992 15.913724,-3.62993 19.66902,-10.37589 20.177906,-36.24727 0.343773,-17.4772 1.539566,-22.50384 6.871738,-28.88603 3.090902,-3.69957 3.881323,-5.50547 3.419768,-7.81324 -2.923139,-14.6157 -1.810396,-21.98028 5.504993,-36.43432 l 5.047486,-9.97299 v -12.65941 c 0,-18.201846 2.372404,-24.355176 20.662628,-53.592867 C 99.801843,30.079947 104.26981,20.384025 106.35001,9.2940269 l 1.42616,-7.6031717 3.64046,5.6361841 c 3.90186,6.0408757 6.94324,14.7714557 6.94324,19.9312387 0,4.103378 1.04828,4.005172 5.19205,-0.486404 5.19598,-5.632125 6.11091,-7.064882 8.91123,-13.954928 l 2.60262,-6.4036326 1.22228,4.4021916 c 1.82963,6.589701 1.49436,14.82276 -0.98985,24.307195 -1.22357,4.67149 -3.03227,13.517201 -4.0193,19.657136 -0.98704,6.139935 -2.763,13.354826 -3.94659,16.033093 l -2.15199,4.869574 5.71719,-5.140238 c 7.82943,-7.039333 13.42715,-8.539239 36.25034,-9.71325 10.40391,-0.535172 22.07081,-1.764392 25.92644,-2.731602 9.70714,-2.435094 21.87587,-8.606847 27.85687,-14.128479 4.55483,-4.205003 5.15221,-4.458014 6.42282,-2.720338 1.79836,2.4594 5.62139,14.321679 6.54023,20.293343 l 0.71032,4.61648 18.30256,0.721834 c 158.42024,6.247928 290.73725,110.398207 326.54375,257.031337 6.7339,27.57636 8.39354,42.34286 8.38071,74.56662 -0.0101,24.90347 -0.39277,31.69094 -2.54751,45.16279 -6.67166,41.71253 -20.31749,79.36302 -41.51501,114.54491 -35.37871,58.71868 -94.01717,103.71194 -159.70526,122.54177 -29.51956,8.46194 -50.48781,11.47337 -83.09154,11.93349 -13.94956,0.19686 -27.39186,0.14249 -29.87178,-0.12085 z"
       id="path477" />
    <path
       style="fill:#000000;stroke-width:1.12724"
       d="M 271.10045,692.54032 C 242.70484,689.52516 221.42309,685.11035 198.39368,677.45763 76.018137,636.79204 0.95836704,532.43449 0.96198198,402.96323 0.96261425,380.31845 2.5042853,358.8186 5.1062384,345.16822 c 1.535954,-8.05793 5.7396746,-17.53893 7.3383886,-16.55087 1.119231,0.69173 2.356507,13.43568 1.967225,20.26244 -0.712136,12.48858 0.0056,44.76456 1.278424,57.48908 5.422433,54.20882 26.393753,107.2478 57.416582,145.21342 38.118692,46.64951 94.384002,78.85508 155.722212,89.13347 79.88809,13.38678 159.875,-9.73774 211.67847,-61.19706 24.31607,-24.15451 40.31044,-50.20512 51.62684,-84.08649 14.83108,-44.4043 16.69665,-89.57912 5.52016,-133.67013 -8.29869,-32.7381 -24.8176,-65.58279 -46.44775,-92.35248 -14.65135,-18.13264 -38.86393,-39.47617 -58.83203,-51.86079 -56.59742,-35.10282 -119.32264,-45.28185 -187.78128,-30.47307 -5.57982,1.20701 -15.18435,2.99679 -21.34342,3.97729 -11.85862,1.88787 -19.81843,4.77808 -24.01382,8.71944 -1.94381,1.82612 -2.55032,3.64954 -2.55032,7.66739 0,16.41477 -9.59658,25.34873 -33.38339,31.07837 -6.74834,1.62549 -14.1638,3.92101 -16.47881,5.10114 -7.523142,3.83508 -6.904907,11.41283 1.27144,15.58409 4.91277,2.50631 8.01023,6.15828 8.01023,9.4442 0,1.92262 -0.85847,2.09407 -9.2997,1.8573 -14.828288,-0.41593 -15.872016,-0.27549 -14.89801,2.00454 2.445185,5.72388 3.876509,13.70058 3.235118,18.02914 l -0.708891,4.7841 -3.341597,-2.81177 c -5.849726,-4.92222 -7.896398,-4.91813 -25.712575,0.0514 -7.497876,2.0914 -12.30387,1.40265 -15.74088,-2.25589 -2.239691,-2.38403 -2.503477,-3.59151 -2.027845,-9.28244 0.300715,-3.59805 0.945744,-7.48322 1.433399,-8.6337 0.770526,-1.81785 0.311257,-1.7311 -3.50681,0.66244 -9.160755,5.74287 -17.695877,4.84389 -25.911697,-2.72918 -3.549339,-3.27167 -5.452456,-6.20832 -6.661253,-10.27878 -2.229627,-7.50796 -2.138248,-10.03452 0.592501,-16.38231 2.703989,-6.2856 4.515404,-7.57886 13.575883,-9.69253 15.387994,-3.58977 19.153093,-10.51194 19.657191,-36.13995 0.343773,-17.4772 1.539566,-22.50384 6.871738,-28.88603 3.090902,-3.69957 3.881323,-5.50547 3.419768,-7.81324 -2.919399,-14.59697 -1.911595,-21.26497 5.478643,-36.24868 5.051921,-10.24276 5.073836,-10.33904 5.073836,-22.29057 0,-18.501965 2.57626,-25.243174 20.682942,-54.120337 C 99.806117,30.148184 105.39532,17.614353 106.56282,7.5551749 l 0.78838,-6.7927527 3.8504,6.1004006 c 4.10858,6.5094672 7.15827,15.1986762 7.15827,20.3954552 0,4.103378 1.04828,4.005172 5.19205,-0.486404 5.19598,-5.632125 6.11091,-7.064882 8.91123,-13.954928 l 2.60262,-6.4036326 1.22228,4.4021916 c 1.82963,6.589701 1.49436,14.82276 -0.98985,24.307195 -1.22357,4.67149 -3.03227,13.517201 -4.0193,19.657136 -0.98704,6.139935 -2.763,13.354826 -3.94659,16.033093 l -2.15199,4.869574 5.71719,-5.140238 c 7.76915,-6.985142 13.36098,-8.475226 36.49716,-9.725613 10.53966,-0.569612 22.20656,-1.812592 25.92644,-2.76218 9.54925,-2.43767 21.71716,-8.645244 27.61005,-14.085538 4.55483,-4.205003 5.15221,-4.458014 6.42282,-2.720338 1.79836,2.4594 5.62139,14.321679 6.54023,20.293343 l 0.71032,4.61648 18.30256,0.721834 c 138.7958,5.47396 258.57033,85.781407 310.46848,208.165527 9.96725,23.5044 17.3839,49.98763 21.90248,78.209 2.17271,13.57 2.54822,20.23413 2.54822,45.22343 0,24.95901 -0.37678,31.66089 -2.53905,45.16279 -6.68409,41.73783 -20.32351,79.36773 -41.51819,114.54491 -35.37871,58.71868 -94.01717,103.71194 -159.70526,122.54177 -29.51956,8.46194 -50.48781,11.47337 -83.09154,11.93349 -13.94956,0.19686 -27.39186,0.14249 -29.87178,-0.12085 z"
       id="path479" />
    <path
       style="fill:#000000;stroke-width:1.12724"
       d="M 271.10045,692.54032 C 242.70484,689.52516 221.42309,685.11035 198.39368,677.45763 161.21225,665.10218 128.48073,647.08157 99.774097,623.16177 41.275151,574.41755 5.1806699,499.90658 1.3082985,419.89571 0.35259201,400.14892 1.5724757,368.73825 3.9315375,352.35017 5.677014,340.22458 10.262393,327.26866 12.351469,328.55978 c 1.19655,0.7395 2.46409,13.24029 2.060383,20.32001 -0.712136,12.48858 0.0056,44.76456 1.278424,57.48908 5.422433,54.20882 26.393753,107.2478 57.416582,145.21342 38.118692,46.64951 94.384002,78.85508 155.722212,89.13347 79.88809,13.38678 159.875,-9.73774 211.67847,-61.19706 24.31607,-24.15451 40.31044,-50.20512 51.62684,-84.08649 14.83108,-44.4043 16.69665,-89.57912 5.52016,-133.67013 -8.29869,-32.7381 -24.8176,-65.58279 -46.44775,-92.35248 -14.65135,-18.13264 -38.86393,-39.47617 -58.83203,-51.86079 -56.59742,-35.10282 -119.32264,-45.28185 -187.78128,-30.47307 -5.57982,1.20701 -15.18435,2.99679 -21.34342,3.97729 -11.85862,1.88787 -19.81843,4.77808 -24.01382,8.71944 -1.94381,1.82612 -2.55032,3.64954 -2.55032,7.66739 0,16.41477 -9.59658,25.34873 -33.38339,31.07837 -6.74834,1.62549 -14.1638,3.92101 -16.47881,5.10114 -7.523142,3.83508 -6.904907,11.41283 1.27144,15.58409 4.91277,2.50631 8.01023,6.15828 8.01023,9.4442 0,1.92262 -0.85847,2.09407 -9.2997,1.8573 -14.828288,-0.41593 -15.872016,-0.27549 -14.89801,2.00454 2.445185,5.72388 3.876509,13.70058 3.235118,18.02914 l -0.708891,4.7841 -3.341597,-2.81177 c -5.849726,-4.92222 -7.896398,-4.91813 -25.712575,0.0514 -7.497876,2.0914 -12.30387,1.40265 -15.74088,-2.25589 -2.239691,-2.38403 -2.503477,-3.59151 -2.027845,-9.28244 0.300715,-3.59805 0.922546,-7.42277 1.381847,-8.49937 0.679675,-1.59315 -0.148267,-1.40784 -4.448721,0.99574 -6.191544,3.46051 -14.021653,3.92134 -19.397121,1.14158 -7.573537,-3.91643 -13.93361,-14.71053 -13.849891,-23.50557 0.03953,-4.15341 4.034764,-11.8358 7.251215,-13.9433 1.625764,-1.06525 5.756089,-2.58772 9.178501,-3.38329 14.727058,-3.42341 18.56518,-10.67142 19.063384,-35.9998 0.343773,-17.4772 1.539566,-22.50384 6.871738,-28.88603 3.090902,-3.69957 3.881323,-5.50547 3.419768,-7.81324 -2.919399,-14.59697 -1.911595,-21.26497 5.478643,-36.24868 5.051921,-10.24276 5.073836,-10.33904 5.073836,-22.29057 0,-18.486492 2.557918,-25.186849 20.6609,-54.120337 C 99.801113,30.081462 104.26954,20.385468 106.35001,9.2940269 l 1.42616,-7.6031717 3.64046,5.6361841 c 3.90186,6.0408757 6.94324,14.7714557 6.94324,19.9312387 0,4.103378 1.04828,4.005172 5.19205,-0.486404 5.19598,-5.632125 6.11091,-7.064882 8.91123,-13.954928 l 2.60262,-6.4036326 1.22228,4.4021916 c 1.82963,6.589701 1.49436,14.82276 -0.98985,24.307195 -1.22357,4.67149 -3.03227,13.517201 -4.0193,19.657136 -0.98704,6.139935 -2.763,13.354826 -3.94659,16.033093 l -2.15199,4.869574 5.71719,-5.140238 c 7.76915,-6.985142 13.36098,-8.475226 36.49716,-9.725613 10.53966,-0.569612 22.20656,-1.812592 25.92644,-2.76218 9.54925,-2.43767 21.71716,-8.645244 27.61005,-14.085538 4.55483,-4.205003 5.15221,-4.458014 6.42282,-2.720338 1.79836,2.4594 5.62139,14.321679 6.54023,20.293343 l 0.71032,4.61648 18.30256,0.721834 c 158.42024,6.247928 290.73725,110.398207 326.54375,257.031337 6.70346,27.4517 8.37543,42.33724 8.37543,74.56662 0,24.95901 -0.37678,31.66089 -2.53905,45.16279 -6.68409,41.73783 -20.32351,79.36773 -41.51819,114.54491 -35.37871,58.71868 -94.01717,103.71194 -159.70526,122.54177 -29.51956,8.46194 -50.48781,11.47337 -83.09154,11.93349 -13.94956,0.19686 -27.39186,0.14249 -29.87178,-0.12085 z"
       id="path481" />
  </g>
  <g
     opacity="5"
     id="g46"
     style="fill:#e5e9f0;fill-opacity:1">
    <path
       fill-rule="evenodd"
       clip-rule="evenodd"
       d="M234.665 66.087C234.913 56.2068 230.689 46.8467 228.099 41.1075C227.516 39.8148 227.015 38.7058 226.667 37.8159C206.381 59.3332 184.971 59.8635 166.205 60.3284C149.829 60.7341 135.466 61.0899 125.619 75.3002C129.961 69.0049 130.963 61.4323 131.971 53.8057C132.587 49.1443 133.206 44.4628 134.592 40.0404C138.394 28.501 140.506 15.0151 134.17 4.58796C132.762 14.8761 127.131 24.3301 118.684 30.5864C119.028 24.9017 118.096 19.212 115.954 13.9245C113.812 8.63688 110.514 3.88203 106.294 0C107.362 18.1381 97.0181 34.0721 86.6579 50.0312C76.53 65.6323 66.3867 81.2573 66.8738 98.9887C67.5778 103.855 67.5778 108.721 66.8738 113.448C66.0609 117.461 64.0746 120.968 62.0794 124.491C61.3102 125.849 60.5396 127.209 59.8345 128.602C55.0013 138.052 53.7048 148.885 56.174 159.188C56.7372 160.857 56.8779 162.803 56.4556 164.61C55.7516 166.001 54.7661 166.974 53.6398 167.947C45.6489 175.838 45.9732 188.208 46.2699 199.526C46.2869 200.172 46.3037 200.815 46.3189 201.453C46.7413 213.41 44.2071 227.452 32.8034 232.039C31.0442 232.676 29.163 233.024 27.2716 233.373C24.6217 233.863 21.9517 234.356 19.5694 235.654C13.5155 238.713 10.8406 245.942 10.9813 252.616C11.0117 257.181 12.2651 261.656 14.6143 265.587C16.9634 269.519 20.3245 272.766 24.3561 274.999C32.5218 279.17 44.0663 277.502 49.6978 270.133C46.3189 277.502 43.644 287.234 50.6833 292.378C52.0912 293.212 53.6399 293.768 55.3293 294.186C60.4978 295.113 65.3179 293.461 70.1287 291.811C73.9667 290.495 77.7988 289.18 81.7973 289.18C87.4287 289.18 93.7642 293.073 93.4826 298.495C95.4369 294.032 96.2534 289.163 95.8607 284.316C95.468 279.468 93.878 274.79 91.23 270.69C99.5365 270.272 107.843 270.412 116.149 271.385C119.528 266.658 112.77 260.54 108.124 258.594C106.746 258.103 105.498 257.309 104.474 256.274C103.45 255.239 102.677 253.988 102.211 252.616C100.522 246.638 105.449 244.413 109.673 242.606C112.43 241.426 116.308 240.628 120.675 239.729C136.379 236.496 158.422 231.959 157.541 203.678C157.402 195.029 185.678 189.905 195.199 189.911L195.272 190.192C220.548 182.973 246.837 179.828 273.127 180.877C299.835 181.933 326.164 187.481 350.982 197.282C402.28 217.241 445.15 253.88 472.513 301.149C499.876 348.417 510.095 403.488 501.484 457.267C499.126 470.963 495.641 484.447 491.066 497.585C477.8 537.399 452.617 572.303 418.842 597.686C395.695 614.966 369.41 627.708 341.409 635.224C282.604 650.73 220.178 645.671 164.721 620.904C108.037 595.647 63.0196 550.298 38.5757 493.831C26.3251 465.195 18.6775 434.846 15.9089 403.879C14.5011 388.169 13.9379 372.459 14.5011 356.749C14.6419 352.717 15.0642 348.685 15.9089 344.653C14.3228 341.768 14.1227 337.709 13.9291 333.782C13.7961 331.086 13.6663 328.452 13.0932 326.301C5.6502 332.971 4.00969 346.17 2.88725 355.201C2.86319 355.394 2.83937 355.586 2.81574 355.775C0.98551 372.042 0 388.308 0 404.575C0.281574 437.663 5.63149 470.474 16.1905 501.895C38.3288 567.417 84.6839 622.279 145.996 655.522C209.194 690.268 282.762 701.933 353.798 688.472C390.376 682.096 425.29 668.552 456.483 648.638C487.675 628.724 514.513 602.843 535.414 572.522C556.117 542.248 571.227 508.593 580.043 473.116C588.895 437.386 591.326 400.399 587.223 363.839C583.094 326.995 572.619 291.119 556.25 257.76C522.421 188.944 465.793 133.611 395.753 100.935C345.242 76.9776 290.058 65.1874 234.665 66.087Z"
       fill="#2D3748"
       id="path36"
       style="fill:#000000;fill-opacity:1" />
    <g
       id="svgGroup"
       stroke-linecap="round"
       fill-rule="evenodd"
       font-size="12px"
       stroke="#000"
       stroke-width="0.25mm"
       fill="#000"
       style="fill:#2e3440;fill-opacity:1;stroke:none;stroke-width:0.25mm"
       transform="matrix(1.2969654,0,0,1.2969654,129.05339,301.94816)">
      <path
         d="m 101.46995,30.298106 h -9.237266 v -3.988767 q 1.278001,-0.548174 3.666323,-0.975964 a 41.453729,41.453729 0 0 1 0.74164,-0.125757 71.760192,71.760192 0 0 1 3.832923,-0.506255 88.342974,88.342974 0 0 1 2.51837,-0.228943 q 3.4105,-0.262263 6.13954,-0.262263 a 21.920485,21.920485 0 0 1 1.2221,0.03117 q 1.15117,0.06449 1.92828,0.260113 a 5.4591617,5.4591617 0 0 1 0.18273,0.04944 q 1.13397,0.327829 1.17911,2.276531 a 7.0993824,7.0993824 0 0 1 0.002,0.164452 v 46.762412 h 9.13192 v 3.9361 q -1.78425,0.996386 -5.87835,1.626248 a 53.616729,53.616729 0 0 1 -5.95574,0.590092 46.816154,46.816154 0 0 1 -1.91646,0.03977 q -2.54524,0 -4.44343,-0.580418 a 9.7306145,9.7306145 0 0 1 -0.93619,-0.337503 3.3083874,3.3083874 0 0 1 -1.93258,-2.227089 q -0.19133,-0.638461 -0.23432,-1.434924 a 8.6998337,8.6998337 0 0 1 -0.0108,-0.457886 v -0.420266 q 0,-0.09996 -1.785321,0.728748 a 92.070552,92.070552 0 0 0 -0.1838,0.08491 q -1.968051,0.917922 -5.195833,2.177645 a 53.543639,53.543639 0 0 1 -4.259628,1.452122 64.474861,64.474861 0 0 1 -2.772038,0.752395 31.330795,31.330795 0 0 1 -6.558733,0.929745 28.779101,28.779101 0 0 1 -0.920071,0.01505 29.484203,29.484203 0 0 1 -3.467465,-0.189173 Q 72.54574,79.990558 70.295004,78.47717 67.093027,76.325321 65.964435,72.547224 a 26.101651,26.101651 0 0 1 -0.880302,-4.311222 35.50981,35.50981 0 0 1 -0.24829,-4.296175 V 30.298106 h -9.236184 v -3.988767 q 1.277996,-0.548174 3.666312,-0.975964 a 41.453729,41.453729 0 0 1 0.741647,-0.125757 72.328788,72.328788 0 0 1 3.847962,-0.508404 88.037716,88.037716 0 0 1 2.476453,-0.226794 q 3.332034,-0.257963 6.027758,-0.262263 a 56.981008,56.981008 0 0 1 0.08706,0 23.130766,23.130766 0 0 1 1.156539,0.02687 q 1.117843,0.05589 1.875612,0.228943 a 5.386072,5.386072 0 0 1 0.326755,0.08491 1.3682837,1.3682837 0 0 1 0.860954,0.771742 q 0.293434,0.611589 0.293434,1.669241 v 35.897836 a 31.493097,31.493097 0 0 0 0.09996,2.606511 q 0.211746,2.53772 0.870629,4.138171 a 6.472745,6.472745 0 0 0 0.446062,0.892126 4.1876145,4.1876145 0 0 0 1.919682,1.636996 q 1.470394,0.665332 3.781321,0.696502 a 16.989075,16.989075 0 0 0 0.230018,0.0011 21.614153,21.614153 0 0 0 1.623023,-0.06557 q 0.823335,-0.06234 1.758454,-0.182724 a 47.428819,47.428819 0 0 0 1.525212,-0.223569 114.21568,114.21568 0 0 0 5.72036,-1.075924 225.16059,225.16059 0 0 0 1.346781,-0.293434 q 1.918611,-0.424566 3.328812,-0.777117 a 74.913801,74.913801 0 0 0 0.0226,-0.0054 490.8054,490.8054 0 0 0 0.429941,-0.107485 q 1.40806,-0.353626 1.40806,-0.364374 a 0.00107485,0.00107485 0 0 0 -10e-4,0 z M 13.245206,6.5761724 V 71.602431 h 9.499521 A 104.45067,104.45067 0 0 0 36.88975,70.630767 82.655944,82.655944 0 0 0 50.771434,67.508329 q -0.04729,0 0.397694,1.473618 a 129.52047,129.52047 0 0 0 0.126833,0.415967 13.420574,13.420574 0 0 1 0.556772,3.242822 15.514381,15.514381 0 0 1 0.02042,0.798613 q 0,3.095567 -2.177646,4.382163 a 7.6335827,7.6335827 0 0 1 -1.53381,0.665332 q -1.6112,0.520227 -4.054333,0.755619 a 39.034243,39.034243 0 0 1 -1.759529,0.126832 152.892,152.892 0 0 1 -2.822556,0.115009 q -4.590681,0.147255 -11.322465,0.147255 A 420.51776,420.51776 0 0 1 18.75596,79.527298 Q 14.085738,79.421963 10.437698,79.290831 6.8068554,79.1597 5.0215292,79.003846 a 34.822981,34.822981 0 0 1 -0.01612,-0.0021 10.345429,10.345429 0 0 1 -1.10817,-0.176276 Q 2.381698,78.490068 1.7518358,77.743048 A 2.9375643,2.9375643 0 0 1 1.2563308,76.862746 Q 0.91237882,75.934075 0.91237882,74.488403 V 10.406937 H -9.2170051 V 6.2612414 a 8.096843,8.096843 0 0 1 0.9877869,-0.417042 q 1.6617176,-0.591167 4.748686,-1.1565379 a 71.890249,71.890249 0 0 1 0.2988083,-0.053743 q 4.4090337,-0.78679 9.5521903,-0.78679 3.6104204,0 5.1259586,0.271937 a 5.8224609,5.8224609 0 0 1 0.332129,0.06879 1.6617177,1.6617177 0 0 1 1.233927,1.1361162 q 0.120383,0.3375027 0.161228,0.7717417 a 5.0603925,5.0603925 0 0 1 0.0215,0.480458 z M 129.81051,30.613037 v -3.9361 a 9.0867796,9.0867796 0 0 1 1.03186,-0.396619 q 1.33281,-0.42994 3.3761,-0.757769 a 71.760192,71.760192 0 0 1 3.83292,-0.506255 88.342974,88.342974 0 0 1 2.5173,-0.228943 q 3.41157,-0.262263 6.14061,-0.262263 a 21.920485,21.920485 0 0 1 1.22103,0.03117 q 1.15224,0.06449 1.92936,0.260113 a 5.4591617,5.4591617 0 0 1 0.18272,0.04944 q 1.13397,0.32783 1.17911,2.276532 a 7.0993824,7.0993824 0 0 1 0.002,0.164452 v 12.595089 l 6.66514,-9.498447 q 4.72289,-6.770478 12.5435,-6.770478 a 12.617661,12.617661 0 0 1 0.64383,0.0172 q 0.75562,0.03977 1.76383,0.162303 a 39.08906,39.08906 0 0 1 0.0323,0.0043 8.3161123,8.3161123 0 0 1 1.81864,0.425641 7.2004183,7.2004183 0 0 1 0.88461,0.386946 q 1.13181,0.591167 1.20275,1.7821 a 2.7193698,2.7193698 0 0 1 0.004,0.160153 q 0,0.524527 -0.10533,0.839458 l -2.25611,7.40034 a 32.288486,32.288486 0 0 0 -1.67032,-0.480458 q -0.83301,-0.21497 -1.58325,-0.352551 a 18.390679,18.390679 0 0 0 -0.34181,-0.05912 q -1.60045,-0.262264 -2.96551,-0.262264 a 10.133683,10.133683 0 0 0 -5.16357,1.430625 12.122155,12.122155 0 0 0 -0.24184,0.14403 23.380131,23.380131 0 0 0 -4.72397,3.830765 56.174871,56.174871 0 0 0 -2.49473,2.790309 46.103529,46.103529 0 0 0 -1.31024,1.644521 119.7834,119.7834 0 0 1 -0.78894,1.028631 q -0.86203,1.111394 -1.52628,1.902484 a 33.72126,33.72126 0 0 1 -0.38695,0.454661 v 16.321593 q 0,6.455548 0.57719,10.024049 a 272.78934,272.78934 0 0 0 0.27194,1.653119 q 0.34288,2.042214 0.5686,3.139636 a 28.960751,28.960751 0 0 0 0.0516,0.24614 q -1.41773,0.78679 -3.62117,1.232853 -1.83692,0.371898 -3.30839,0.434239 a 13.669939,13.669939 0 0 1 -0.57612,0.01182 q -2.67637,0 -4.40795,-1.075924 a 3.3814772,3.3814772 0 0 1 -1.41236,-1.815421 q -0.21497,-0.60944 -0.28591,-1.368284 a 8.425747,8.425747 0 0 1 -0.0344,-0.778191 V 30.613037 Z M 189.37869,4.633919 h -9.28993 V 0.64515176 a 8.9427497,8.9427497 0 0 1 1.00391,-0.38694598 q 1.12752,-0.3643741 2.77204,-0.6567332 a 37.469261,37.469261 0 0 1 0.65888,-0.1107096 74.20655,74.20655 0 0 1 3.87053,-0.50840388 89.171683,89.171683 0 0 1 2.47968,-0.2267933 q 3.33204,-0.2579639 6.02776,-0.2622633 a 56.981008,56.981008 0 0 1 0.0871,0 21.920485,21.920485 0 0 1 1.22103,0.032245 q 1.15117,0.064491 1.92936,0.2601136 a 5.4591617,5.4591617 0 0 1 0.18165,0.048368 q 1.13396,0.32782928 1.17911,2.2776066 a 7.0993824,7.0993824 0 0 1 0.002,0.1633772 V 63.204629 q 0,6.455548 0.57719,10.024049 a 162.53663,162.53663 0 0 0 0.27516,1.653119 q 0.39447,2.28298 0.66963,3.385776 a 10.435716,10.435716 0 0 1 -1.42632,0.623413 q -0.72445,0.257964 -1.56821,0.460036 a 19.660076,19.660076 0 0 1 -0.6793,0.149404 q -1.83585,0.371898 -3.30839,0.434239 a 13.669939,13.669939 0 0 1 -0.57505,0.01182 10.621665,10.621665 0 0 1 -1.84336,-0.150478 q -1.43063,-0.25259 -2.513,-0.925446 a 3.3814772,3.3814772 0 0 1 -1.41235,-1.815421 q -0.21497,-0.60944 -0.28484,-1.368284 a 8.425747,8.425747 0 0 1 -0.0344,-0.778191 z m 24.71939,44.820159 16.63652,21.256228 7.76794,-5.038896 2.09918,3.201978 a 14.435232,14.435232 0 0 1 -1.21888,1.953002 q -1.06517,1.453196 -2.63875,2.979483 -2.65058,2.572115 -5.69456,4.356366 -2.23246,1.309167 -4.18224,1.657418 a 7.8335048,7.8335048 0 0 1 -1.38118,0.126832 5.1893745,5.1893745 0 0 1 -3.99199,-1.820795 7.6056366,7.6056366 0 0 1 -0.5213,-0.645985 L 203.7591,55.437766 203.3915,54.859497 a 2.2829808,2.2829808 0 0 1 -0.30741,-0.777116 3.2009025,3.2009025 0 0 1 -0.0602,-0.639536 2.9289655,2.9289655 0 0 1 0.84913,-2.070161 4.1360217,4.1360217 0 0 1 0.30526,-0.291284 q 1.50264,-1.361834 3.95007,-3.39545 a 247.81735,247.81735 0 0 1 0.5901,-0.487982 q 2.86017,-2.36252 5.79881,-5.222695 2.93972,-2.860175 4.96043,-5.825685 a 13.936501,13.936501 0 0 0 1.19094,-2.093807 q 0.82871,-1.832619 0.82871,-3.548079 0,-1.416652 -0.4192,-2.46678 3.62117,-1.784251 5.35276,-2.729044 1.4274,-0.778191 2.33779,-1.165137 a 9.9595575,9.9595575 0 0 1 0.36545,-0.14618 5.5301018,5.5301018 0 0 1 1.18341,-0.297733 7.4573074,7.4573074 0 0 1 1.04691,-0.06987 4.4713748,4.4713748 0 0 1 1.06302,0.118233 2.8548009,2.8548009 0 0 1 1.61335,1.010359 4.1145247,4.1145247 0 0 1 0.85343,2.090583 5.4097187,5.4097187 0 0 1 0.0387,0.664257 q 0,2.519448 -2.15185,5.458087 a 33.586904,33.586904 0 0 1 -2.44636,2.952612 q -1.35001,1.459646 -2.98593,2.931115 a 53.084678,53.084678 0 0 1 -0.0516,0.04729 119.08475,119.08475 0 0 1 -6.87581,5.72035 998.88472,998.88472 0 0 1 -2.95369,2.266858 q -1.35431,1.036155 -2.57211,1.958376 a 582.12141,582.12141 0 0 1 -0.79754,0.602991 z"
         vector-effect="non-scaling-stroke"
         id="path509"
         style="fill:#000000;fill-opacity:1;stroke-width:0.268712mm;stroke:none" />
    </g>
    <g
       id="svgGroup-3"
       stroke-linecap="round"
       fill-rule="evenodd"
       font-size="12px"
       stroke="#000"
       stroke-width="0.25mm"
       fill="#000"
       style="fill:#2e3440;fill-opacity:1;stroke:none;stroke-width:0.25mm"
       transform="matrix(1.3826713,0,0,1.3826713,159.44623,420.35004)">
      <path
         d="m 93.00505,75.530425 v -0.488 a 0.003,0.003 0 0 0 -0.003,-0.002 q -0.061,0 -1.066,0.63 a 107.954,107.954 0 0 0 -0.322,0.202 q -1.361,0.86 -3.657,2 a 81.029,81.029 0 0 1 -0.103,0.051 32.121,32.121 0 0 1 -3.16,1.35 39.146,39.146 0 0 1 -2.089,0.701 q -2.881,0.879 -5.908,0.879 a 20.559,20.559 0 0 1 -5.749,-0.786 18.619,18.619 0 0 1 -2.112,-0.752 13.042,13.042 0 0 1 -5.811,-4.786 12.218,12.218 0 0 1 -1.746,-4.084 q -0.451,-1.913 -0.451,-4.192 0,-5.615 3.247,-8.984 a 15.976,15.976 0 0 1 4.361,-3.16 q 1.862,-0.938 4.126,-1.571 a 27.985,27.985 0 0 1 0.473,-0.128 44.042,44.042 0 0 1 6.128,-1.117 q 3.271,-0.372 6.958,-0.372 h 6.884 v -3.662 a 52.383,52.383 0 0 0 -0.172,-4.333 42.381,42.381 0 0 0 -0.316,-2.747 13.621,13.621 0 0 0 -0.556,-2.359 q -0.446,-1.316 -1.152,-2.34 a 7.896,7.896 0 0 0 -0.416,-0.55 5.12,5.12 0 0 0 -2.482,-1.619 q -0.858,-0.269 -1.903,-0.336 a 11.176,11.176 0 0 0 -0.717,-0.023 15.238,15.238 0 0 0 -4.923,0.843 18.66,18.66 0 0 0 -1.694,0.671 38.207,38.207 0 0 0 -6.372,3.662 135.665,135.665 0 0 0 -2.881,2.1 104.887,104.887 0 0 0 -2.587,2.002 l -4.004,-5.371 a 3.603,3.603 0 0 1 -0.447,-0.666 2.485,2.485 0 0 1 -0.286,-1.141 2.701,2.701 0 0 1 0.532,-1.584 q 0.297,-0.42 0.76,-0.816 a 7.084,7.084 0 0 1 0.71,-0.53 q 1.64,-1.08 4.035,-1.931 a 29.902,29.902 0 0 1 1.092,-0.364 q 3.125,-0.976 6.616,-1.489 a 50.19,50.19 0 0 1 3.666,-0.407 38.896,38.896 0 0 1 2.804,-0.106 32.58,32.58 0 0 1 6.948,0.717 27.637,27.637 0 0 1 4.063,1.212 17.043,17.043 0 0 1 8.00799,6.201 15.431,15.431 0 0 1 2.249,4.951 q 0.754,2.83 0.754,6.353 v 27.197 h 8.496 v 3.662 q -1.66,0.928 -5.469,1.514 a 49.556,49.556 0 0 1 -6.028,0.565 44.225,44.225 0 0 1 -1.344995,0.021 q -2.392995,0 -4.613995,-0.806 -2.14,-0.775 -2.355,-3.656 a 8.364,8.364 0 0 1 -0.014,-0.226 z m -75,-63.573999 v 60.497999 h 8.838 a 97.177,97.177 0 0 0 13.16,-0.903 76.9,76.9 0 0 0 12.915,-2.905 q -0.044,0 0.37,1.37 a 120.501,120.501 0 0 0 0.118,0.387 12.486,12.486 0 0 1 0.518,3.018 14.434,14.434 0 0 1 0.019,0.742 q 0,2.881 -2.026,4.077 a 7.102,7.102 0 0 1 -1.427,0.62 q -1.499,0.484 -3.772,0.702 a 36.316,36.316 0 0 1 -1.637,0.119 142.245,142.245 0 0 1 -2.626,0.107 q -4.271,0.137 -10.534,0.137 a 391.234,391.234 0 0 1 -8.789,-0.098 q -4.345,-0.097 -7.739,-0.219 -3.378,-0.122 -5.039,-0.268 a 32.398,32.398 0 0 1 -0.015,-10e-4 9.625,9.625 0 0 1 -1.0310004,-0.165 q -1.4100004,-0.311 -1.9960004,-1.007 a 2.733,2.733 0 0 1 -0.461,-0.818 q -0.32,-0.864 -0.32,-2.209 v -59.619 h -9.424 v -3.857999 a 7.533,7.533 0 0 1 0.919,-0.387 q 1.54600002,-0.551 4.418,-1.076 a 66.884,66.884 0 0 1 0.278,-0.05 q 4.102,-0.7329994 8.8870008,-0.7329994 3.359,0 4.769,0.254 a 5.417,5.417 0 0 1 0.309,0.064 1.546,1.546 0 0 1 1.148,1.0559994 q 0.112,0.315 0.15,0.718 a 4.708,4.708 0 0 1 0.02,0.447 z M 135.97404,6.9274262 V 33.831425 a 40.22,40.22 0 0 1 4.917,-2.762 49.678,49.678 0 0 1 3.335,-1.437 26.539,26.539 0 0 1 5.883,-1.573 22.939,22.939 0 0 1 3.248,-0.234 26.893,26.893 0 0 1 5.161,0.468 q 4.049,0.792 6.997,2.926 a 19.591,19.591 0 0 1 6.745,8.752 23.509,23.509 0 0 1 0.14,0.354 32.965,32.965 0 0 1 1.98,8.43 40.858,40.858 0 0 1 0.217,4.266 31.629,31.629 0 0 1 -1.097,8.468 26.997,26.997 0 0 1 -2.37,5.838 q -3.466,6.299 -9.619,9.912 a 26.181,26.181 0 0 1 -10.089,3.359 33.195,33.195 0 0 1 -4.169,0.255 47.277,47.277 0 0 1 -9.534,-0.935 41.945,41.945 0 0 1 -3.234,-0.799 120.165,120.165 0 0 1 -4.019,-1.236 q -3.331,-1.094 -5.771,-2.157 V 10.052426 h -8.643 V 6.3414262 a 8.32,8.32 0 0 1 0.935,-0.36 q 1.048,-0.339 2.579,-0.611 a 34.86,34.86 0 0 1 0.612,-0.103 69.039,69.039 0 0 1 3.601,-0.473 82.962,82.962 0 0 1 2.307,-0.211 q 3.1,-0.24 5.608,-0.244 a 53.013,53.013 0 0 1 0.081,0 20.394,20.394 0 0 1 1.136,0.03 q 1.071,0.06 1.795,0.242 a 5.079,5.079 0 0 1 0.17,0.045 q 1.055,0.305 1.096,2.119 a 6.605,6.605 0 0 1 0.002,0.152 z m 0,31.5919988 v 35.302 q 0,0.043 1.238,0.344 a 97.339,97.339 0 0 0 0.398,0.096 35.976,35.976 0 0 0 1.289,0.281 q 0.625,0.125 1.341,0.25 a 81.051,81.051 0 0 0 1.52,0.25 q 2.515,0.391 5.103,0.391 a 15.681,15.681 0 0 0 5.036,-0.767 12.482,12.482 0 0 0 6.707,-5.434 22.668,22.668 0 0 0 2.567,-5.986 q 0.781,-2.806 1.098,-6.16 a 51.542,51.542 0 0 0 0.217,-4.847 47.589,47.589 0 0 0 -0.273,-5.265 q -0.286,-2.566 -0.874,-4.716 a 20.632,20.632 0 0 0 -1.27,-3.471 9.045,9.045 0 0 0 -2.368,-3.128 q -1.747,-1.444 -4.252,-1.805 a 12.295,12.295 0 0 0 -1.754,-0.12 24.225,24.225 0 0 0 -8.073,1.413 30.713,30.713 0 0 0 -0.008,0.003 q -4.029,1.416 -7.642,3.369 z m -42.96899,32.129 v -13.721 h -8.203 a 21.46,21.46 0 0 0 -2.539,0.16 q -1.208,0.144 -2.526,0.418 a 35.349,35.349 0 0 0 -0.379,0.081 11.948,11.948 0 0 0 -3.737,1.483 11.074,11.074 0 0 0 -1.439,1.056 q -2.173,1.88 -2.173,5.591 a 9.355,9.355 0 0 0 0.367,2.68 7.39,7.39 0 0 0 1.733,3.008 6.794,6.794 0 0 0 3.28,1.897 q 1.077,0.284 2.356,0.32 a 13.289,13.289 0 0 0 0.37,0.005 16.005,16.005 0 0 0 1.589,-0.084 q 0.811,-0.081 1.709,-0.24 a 28.4,28.4 0 0 0 0.608,-0.115 q 2.197,-0.44 4.248,-1.05 1.949,-0.58 3.258,-1.006 a 71.771,71.771 0 0 0 0.136,-0.044 z"
         vector-effect="non-scaling-stroke"
         id="path383"
         style="fill:#000000;fill-opacity:1;stroke:none" />
    </g>
  </g>
</svg>
