<?xml version="1.0" encoding="UTF-8" standalone="no"?>
<svg
   width="590"
   height="694"
   viewBox="0 0 590 694"
   fill="none"
   version="1.1"
   id="svg48"
   sodipodi:docname="lurk_lab_logo.svg"
   inkscape:version="1.2.1 (9c6d41e410, 2022-07-14)"
   inkscape:export-filename="lurk_lab_logo.png"
   inkscape:export-xdpi="200"
   inkscape:export-ydpi="200"
   xmlns:inkscape="http://www.inkscape.org/namespaces/inkscape"
   xmlns:sodipodi="http://sodipodi.sourceforge.net/DTD/sodipodi-0.dtd"
   xmlns="http://www.w3.org/2000/svg"
   xmlns:svg="http://www.w3.org/2000/svg">
  <defs
     id="defs52" />
  <sodipodi:namedview
     id="namedview50"
     pagecolor="#505050"
     bordercolor="#eeeeee"
     borderopacity="1"
     inkscape:showpageshadow="0"
     inkscape:pageopacity="0"
     inkscape:pagecheckerboard="0"
     inkscape:deskcolor="#505050"
     showgrid="false"
     inkscape:zoom="1.6612489"
     inkscape:cx="4.5146757"
     inkscape:cy="272.38543"
     inkscape:window-width="1906"
     inkscape:window-height="1372"
     inkscape:window-x="30"
     inkscape:window-y="1470"
     inkscape:window-maximized="1"
     inkscape:current-layer="layer2"
     showguides="true">
    <sodipodi:guide
       position="-56.539767,-410.47938"
       orientation="0,-1"
       id="guide1245"
       inkscape:locked="false" />
  </sodipodi:namedview>
  <g
     inkscape:groupmode="layer"
     id="layer2"
     inkscape:label="Layer 1" />
  <g
     opacity="5"
     id="g46"
     style="fill:#e5e9f0;fill-opacity:1">
    <path
       fill-rule="evenodd"
       clip-rule="evenodd"
       d="M234.665 66.087C234.913 56.2068 230.689 46.8467 228.099 41.1075C227.516 39.8148 227.015 38.7058 226.667 37.8159C206.381 59.3332 184.971 59.8635 166.205 60.3284C149.829 60.7341 135.466 61.0899 125.619 75.3002C129.961 69.0049 130.963 61.4323 131.971 53.8057C132.587 49.1443 133.206 44.4628 134.592 40.0404C138.394 28.501 140.506 15.0151 134.17 4.58796C132.762 14.8761 127.131 24.3301 118.684 30.5864C119.028 24.9017 118.096 19.212 115.954 13.9245C113.812 8.63688 110.514 3.88203 106.294 0C107.362 18.1381 97.0181 34.0721 86.6579 50.0312C76.53 65.6323 66.3867 81.2573 66.8738 98.9887C67.5778 103.855 67.5778 108.721 66.8738 113.448C66.0609 117.461 64.0746 120.968 62.0794 124.491C61.3102 125.849 60.5396 127.209 59.8345 128.602C55.0013 138.052 53.7048 148.885 56.174 159.188C56.7372 160.857 56.8779 162.803 56.4556 164.61C55.7516 166.001 54.7661 166.974 53.6398 167.947C45.6489 175.838 45.9732 188.208 46.2699 199.526C46.2869 200.172 46.3037 200.815 46.3189 201.453C46.7413 213.41 44.2071 227.452 32.8034 232.039C31.0442 232.676 29.163 233.024 27.2716 233.373C24.6217 233.863 21.9517 234.356 19.5694 235.654C13.5155 238.713 10.8406 245.942 10.9813 252.616C11.0117 257.181 12.2651 261.656 14.6143 265.587C16.9634 269.519 20.3245 272.766 24.3561 274.999C32.5218 279.17 44.0663 277.502 49.6978 270.133C46.3189 277.502 43.644 287.234 50.6833 292.378C52.0912 293.212 53.6399 293.768 55.3293 294.186C60.4978 295.113 65.3179 293.461 70.1287 291.811C73.9667 290.495 77.7988 289.18 81.7973 289.18C87.4287 289.18 93.7642 293.073 93.4826 298.495C95.4369 294.032 96.2534 289.163 95.8607 284.316C95.468 279.468 93.878 274.79 91.23 270.69C99.5365 270.272 107.843 270.412 116.149 271.385C119.528 266.658 112.77 260.54 108.124 258.594C106.746 258.103 105.498 257.309 104.474 256.274C103.45 255.239 102.677 253.988 102.211 252.616C100.522 246.638 105.449 244.413 109.673 242.606C112.43 241.426 116.308 240.628 120.675 239.729C136.379 236.496 158.422 231.959 157.541 203.678C157.402 195.029 185.678 189.905 195.199 189.911L195.272 190.192C220.548 182.973 246.837 179.828 273.127 180.877C299.835 181.933 326.164 187.481 350.982 197.282C402.28 217.241 445.15 253.88 472.513 301.149C499.876 348.417 510.095 403.488 501.484 457.267C499.126 470.963 495.641 484.447 491.066 497.585C477.8 537.399 452.617 572.303 418.842 597.686C395.695 614.966 369.41 627.708 341.409 635.224C282.604 650.73 220.178 645.671 164.721 620.904C108.037 595.647 63.0196 550.298 38.5757 493.831C26.3251 465.195 18.6775 434.846 15.9089 403.879C14.5011 388.169 13.9379 372.459 14.5011 356.749C14.6419 352.717 15.0642 348.685 15.9089 344.653C14.3228 341.768 14.1227 337.709 13.9291 333.782C13.7961 331.086 13.6663 328.452 13.0932 326.301C5.6502 332.971 4.00969 346.17 2.88725 355.201C2.86319 355.394 2.83937 355.586 2.81574 355.775C0.98551 372.042 0 388.308 0 404.575C0.281574 437.663 5.63149 470.474 16.1905 501.895C38.3288 567.417 84.6839 622.279 145.996 655.522C209.194 690.268 282.762 701.933 353.798 688.472C390.376 682.096 425.29 668.552 456.483 648.638C487.675 628.724 514.513 602.843 535.414 572.522C556.117 542.248 571.227 508.593 580.043 473.116C588.895 437.386 591.326 400.399 587.223 363.839C583.094 326.995 572.619 291.119 556.25 257.76C522.421 188.944 465.793 133.611 395.753 100.935C345.242 76.9776 290.058 65.1874 234.665 66.087Z"
       fill="#2D3748"
       id="path36"
       style="fill:#2e3440;fill-opacity:1" />
    <g
       id="svgGroup"
       stroke-linecap="round"
       fill-rule="evenodd"
       font-size="12px"
       stroke="#000"
       stroke-width="0.25mm"
       fill="#000"
       style="fill:#2e3440;fill-opacity:1;stroke:none;stroke-width:0.25mm"
       transform="matrix(1.2969654,0,0,1.2969654,129.05339,301.94816)">
      <path
         d="m 101.46995,30.298106 h -9.237266 v -3.988767 q 1.278001,-0.548174 3.666323,-0.975964 a 41.453729,41.453729 0 0 1 0.74164,-0.125757 71.760192,71.760192 0 0 1 3.832923,-0.506255 88.342974,88.342974 0 0 1 2.51837,-0.228943 q 3.4105,-0.262263 6.13954,-0.262263 a 21.920485,21.920485 0 0 1 1.2221,0.03117 q 1.15117,0.06449 1.92828,0.260113 a 5.4591617,5.4591617 0 0 1 0.18273,0.04944 q 1.13397,0.327829 1.17911,2.276531 a 7.0993824,7.0993824 0 0 1 0.002,0.164452 v 46.762412 h 9.13192 v 3.9361 q -1.78425,0.996386 -5.87835,1.626248 a 53.616729,53.616729 0 0 1 -5.95574,0.590092 46.816154,46.816154 0 0 1 -1.91646,0.03977 q -2.54524,0 -4.44343,-0.580418 a 9.7306145,9.7306145 0 0 1 -0.93619,-0.337503 3.3083874,3.3083874 0 0 1 -1.93258,-2.227089 q -0.19133,-0.638461 -0.23432,-1.434924 a 8.6998337,8.6998337 0 0 1 -0.0108,-0.457886 v -0.420266 q 0,-0.09996 -1.785321,0.728748 a 92.070552,92.070552 0 0 0 -0.1838,0.08491 q -1.968051,0.917922 -5.195833,2.177645 a 53.543639,53.543639 0 0 1 -4.259628,1.452122 64.474861,64.474861 0 0 1 -2.772038,0.752395 31.330795,31.330795 0 0 1 -6.558733,0.929745 28.779101,28.779101 0 0 1 -0.920071,0.01505 29.484203,29.484203 0 0 1 -3.467465,-0.189173 Q 72.54574,79.990558 70.295004,78.47717 67.093027,76.325321 65.964435,72.547224 a 26.101651,26.101651 0 0 1 -0.880302,-4.311222 35.50981,35.50981 0 0 1 -0.24829,-4.296175 V 30.298106 h -9.236184 v -3.988767 q 1.277996,-0.548174 3.666312,-0.975964 a 41.453729,41.453729 0 0 1 0.741647,-0.125757 72.328788,72.328788 0 0 1 3.847962,-0.508404 88.037716,88.037716 0 0 1 2.476453,-0.226794 q 3.332034,-0.257963 6.027758,-0.262263 a 56.981008,56.981008 0 0 1 0.08706,0 23.130766,23.130766 0 0 1 1.156539,0.02687 q 1.117843,0.05589 1.875612,0.228943 a 5.386072,5.386072 0 0 1 0.326755,0.08491 1.3682837,1.3682837 0 0 1 0.860954,0.771742 q 0.293434,0.611589 0.293434,1.669241 v 35.897836 a 31.493097,31.493097 0 0 0 0.09996,2.606511 q 0.211746,2.53772 0.870629,4.138171 a 6.472745,6.472745 0 0 0 0.446062,0.892126 4.1876145,4.1876145 0 0 0 1.919682,1.636996 q 1.470394,0.665332 3.781321,0.696502 a 16.989075,16.989075 0 0 0 0.230018,0.0011 21.614153,21.614153 0 0 0 1.623023,-0.06557 q 0.823335,-0.06234 1.758454,-0.182724 a 47.428819,47.428819 0 0 0 1.525212,-0.223569 114.21568,114.21568 0 0 0 5.72036,-1.075924 225.16059,225.16059 0 0 0 1.346781,-0.293434 q 1.918611,-0.424566 3.328812,-0.777117 a 74.913801,74.913801 0 0 0 0.0226,-0.0054 490.8054,490.8054 0 0 0 0.429941,-0.107485 q 1.40806,-0.353626 1.40806,-0.364374 a 0.00107485,0.00107485 0 0 0 -10e-4,0 z M 13.245206,6.5761724 V 71.602431 h 9.499521 A 104.45067,104.45067 0 0 0 36.88975,70.630767 82.655944,82.655944 0 0 0 50.771434,67.508329 q -0.04729,0 0.397694,1.473618 a 129.52047,129.52047 0 0 0 0.126833,0.415967 13.420574,13.420574 0 0 1 0.556772,3.242822 15.514381,15.514381 0 0 1 0.02042,0.798613 q 0,3.095567 -2.177646,4.382163 a 7.6335827,7.6335827 0 0 1 -1.53381,0.665332 q -1.6112,0.520227 -4.054333,0.755619 a 39.034243,39.034243 0 0 1 -1.759529,0.126832 152.892,152.892 0 0 1 -2.822556,0.115009 q -4.590681,0.147255 -11.322465,0.147255 A 420.51776,420.51776 0 0 1 18.75596,79.527298 Q 14.085738,79.421963 10.437698,79.290831 6.8068554,79.1597 5.0215292,79.003846 a 34.822981,34.822981 0 0 1 -0.01612,-0.0021 10.345429,10.345429 0 0 1 -1.10817,-0.176276 Q 2.381698,78.490068 1.7518358,77.743048 A 2.9375643,2.9375643 0 0 1 1.2563308,76.862746 Q 0.91237882,75.934075 0.91237882,74.488403 V 10.406937 H -9.2170051 V 6.2612414 a 8.096843,8.096843 0 0 1 0.9877869,-0.417042 q 1.6617176,-0.591167 4.748686,-1.1565379 a 71.890249,71.890249 0 0 1 0.2988083,-0.053743 q 4.4090337,-0.78679 9.5521903,-0.78679 3.6104204,0 5.1259586,0.271937 a 5.8224609,5.8224609 0 0 1 0.332129,0.06879 1.6617177,1.6617177 0 0 1 1.233927,1.1361162 q 0.120383,0.3375027 0.161228,0.7717417 a 5.0603925,5.0603925 0 0 1 0.0215,0.480458 z M 129.81051,30.613037 v -3.9361 a 9.0867796,9.0867796 0 0 1 1.03186,-0.396619 q 1.33281,-0.42994 3.3761,-0.757769 a 71.760192,71.760192 0 0 1 3.83292,-0.506255 88.342974,88.342974 0 0 1 2.5173,-0.228943 q 3.41157,-0.262263 6.14061,-0.262263 a 21.920485,21.920485 0 0 1 1.22103,0.03117 q 1.15224,0.06449 1.92936,0.260113 a 5.4591617,5.4591617 0 0 1 0.18272,0.04944 q 1.13397,0.32783 1.17911,2.276532 a 7.0993824,7.0993824 0 0 1 0.002,0.164452 v 12.595089 l 6.66514,-9.498447 q 4.72289,-6.770478 12.5435,-6.770478 a 12.617661,12.617661 0 0 1 0.64383,0.0172 q 0.75562,0.03977 1.76383,0.162303 a 39.08906,39.08906 0 0 1 0.0323,0.0043 8.3161123,8.3161123 0 0 1 1.81864,0.425641 7.2004183,7.2004183 0 0 1 0.88461,0.386946 q 1.13181,0.591167 1.20275,1.7821 a 2.7193698,2.7193698 0 0 1 0.004,0.160153 q 0,0.524527 -0.10533,0.839458 l -2.25611,7.40034 a 32.288486,32.288486 0 0 0 -1.67032,-0.480458 q -0.83301,-0.21497 -1.58325,-0.352551 a 18.390679,18.390679 0 0 0 -0.34181,-0.05912 q -1.60045,-0.262264 -2.96551,-0.262264 a 10.133683,10.133683 0 0 0 -5.16357,1.430625 12.122155,12.122155 0 0 0 -0.24184,0.14403 23.380131,23.380131 0 0 0 -4.72397,3.830765 56.174871,56.174871 0 0 0 -2.49473,2.790309 46.103529,46.103529 0 0 0 -1.31024,1.644521 119.7834,119.7834 0 0 1 -0.78894,1.028631 q -0.86203,1.111394 -1.52628,1.902484 a 33.72126,33.72126 0 0 1 -0.38695,0.454661 v 16.321593 q 0,6.455548 0.57719,10.024049 a 272.78934,272.78934 0 0 0 0.27194,1.653119 q 0.34288,2.042214 0.5686,3.139636 a 28.960751,28.960751 0 0 0 0.0516,0.24614 q -1.41773,0.78679 -3.62117,1.232853 -1.83692,0.371898 -3.30839,0.434239 a 13.669939,13.669939 0 0 1 -0.57612,0.01182 q -2.67637,0 -4.40795,-1.075924 a 3.3814772,3.3814772 0 0 1 -1.41236,-1.815421 q -0.21497,-0.60944 -0.28591,-1.368284 a 8.425747,8.425747 0 0 1 -0.0344,-0.778191 V 30.613037 Z M 189.37869,4.633919 h -9.28993 V 0.64515176 a 8.9427497,8.9427497 0 0 1 1.00391,-0.38694598 q 1.12752,-0.3643741 2.77204,-0.6567332 a 37.469261,37.469261 0 0 1 0.65888,-0.1107096 74.20655,74.20655 0 0 1 3.87053,-0.50840388 89.171683,89.171683 0 0 1 2.47968,-0.2267933 q 3.33204,-0.2579639 6.02776,-0.2622633 a 56.981008,56.981008 0 0 1 0.0871,0 21.920485,21.920485 0 0 1 1.22103,0.032245 q 1.15117,0.064491 1.92936,0.2601136 a 5.4591617,5.4591617 0 0 1 0.18165,0.048368 q 1.13396,0.32782928 1.17911,2.2776066 a 7.0993824,7.0993824 0 0 1 0.002,0.1633772 V 63.204629 q 0,6.455548 0.57719,10.024049 a 162.53663,162.53663 0 0 0 0.27516,1.653119 q 0.39447,2.28298 0.66963,3.385776 a 10.435716,10.435716 0 0 1 -1.42632,0.623413 q -0.72445,0.257964 -1.56821,0.460036 a 19.660076,19.660076 0 0 1 -0.6793,0.149404 q -1.83585,0.371898 -3.30839,0.434239 a 13.669939,13.669939 0 0 1 -0.57505,0.01182 10.621665,10.621665 0 0 1 -1.84336,-0.150478 q -1.43063,-0.25259 -2.513,-0.925446 a 3.3814772,3.3814772 0 0 1 -1.41235,-1.815421 q -0.21497,-0.60944 -0.28484,-1.368284 a 8.425747,8.425747 0 0 1 -0.0344,-0.778191 z m 24.71939,44.820159 16.63652,21.256228 7.76794,-5.038896 2.09918,3.201978 a 14.435232,14.435232 0 0 1 -1.21888,1.953002 q -1.06517,1.453196 -2.63875,2.979483 -2.65058,2.572115 -5.69456,4.356366 -2.23246,1.309167 -4.18224,1.657418 a 7.8335048,7.8335048 0 0 1 -1.38118,0.126832 5.1893745,5.1893745 0 0 1 -3.99199,-1.820795 7.6056366,7.6056366 0 0 1 -0.5213,-0.645985 L 203.7591,55.437766 203.3915,54.859497 a 2.2829808,2.2829808 0 0 1 -0.30741,-0.777116 3.2009025,3.2009025 0 0 1 -0.0602,-0.639536 2.9289655,2.9289655 0 0 1 0.84913,-2.070161 4.1360217,4.1360217 0 0 1 0.30526,-0.291284 q 1.50264,-1.361834 3.95007,-3.39545 a 247.81735,247.81735 0 0 1 0.5901,-0.487982 q 2.86017,-2.36252 5.79881,-5.222695 2.93972,-2.860175 4.96043,-5.825685 a 13.936501,13.936501 0 0 0 1.19094,-2.093807 q 0.82871,-1.832619 0.82871,-3.548079 0,-1.416652 -0.4192,-2.46678 3.62117,-1.784251 5.35276,-2.729044 1.4274,-0.778191 2.33779,-1.165137 a 9.9595575,9.9595575 0 0 1 0.36545,-0.14618 5.5301018,5.5301018 0 0 1 1.18341,-0.297733 7.4573074,7.4573074 0 0 1 1.04691,-0.06987 4.4713748,4.4713748 0 0 1 1.06302,0.118233 2.8548009,2.8548009 0 0 1 1.61335,1.010359 4.1145247,4.1145247 0 0 1 0.85343,2.090583 5.4097187,5.4097187 0 0 1 0.0387,0.664257 q 0,2.519448 -2.15185,5.458087 a 33.586904,33.586904 0 0 1 -2.44636,2.952612 q -1.35001,1.459646 -2.98593,2.931115 a 53.084678,53.084678 0 0 1 -0.0516,0.04729 119.08475,119.08475 0 0 1 -6.87581,5.72035 998.88472,998.88472 0 0 1 -2.95369,2.266858 q -1.35431,1.036155 -2.57211,1.958376 a 582.12141,582.12141 0 0 1 -0.79754,0.602991 z"
         vector-effect="non-scaling-stroke"
         id="path509"
         style="fill:#2e3440;fill-opacity:1;stroke-width:0.268712mm;stroke:none" />
    </g>
    <g
       id="svgGroup-3"
       stroke-linecap="round"
       fill-rule="evenodd"
       font-size="12px"
       stroke="#000"
       stroke-width="0.25mm"
       fill="#000"
       style="fill:#2e3440;fill-opacity:1;stroke:none;stroke-width:0.25mm"
       transform="matrix(1.3826713,0,0,1.3826713,159.44623,420.35004)">
      <path
         d="m 93.00505,75.530425 v -0.488 a 0.003,0.003 0 0 0 -0.003,-0.002 q -0.061,0 -1.066,0.63 a 107.954,107.954 0 0 0 -0.322,0.202 q -1.361,0.86 -3.657,2 a 81.029,81.029 0 0 1 -0.103,0.051 32.121,32.121 0 0 1 -3.16,1.35 39.146,39.146 0 0 1 -2.089,0.701 q -2.881,0.879 -5.908,0.879 a 20.559,20.559 0 0 1 -5.749,-0.786 18.619,18.619 0 0 1 -2.112,-0.752 13.042,13.042 0 0 1 -5.811,-4.786 12.218,12.218 0 0 1 -1.746,-4.084 q -0.451,-1.913 -0.451,-4.192 0,-5.615 3.247,-8.984 a 15.976,15.976 0 0 1 4.361,-3.16 q 1.862,-0.938 4.126,-1.571 a 27.985,27.985 0 0 1 0.473,-0.128 44.042,44.042 0 0 1 6.128,-1.117 q 3.271,-0.372 6.958,-0.372 h 6.884 v -3.662 a 52.383,52.383 0 0 0 -0.172,-4.333 42.381,42.381 0 0 0 -0.316,-2.747 13.621,13.621 0 0 0 -0.556,-2.359 q -0.446,-1.316 -1.152,-2.34 a 7.896,7.896 0 0 0 -0.416,-0.55 5.12,5.12 0 0 0 -2.482,-1.619 q -0.858,-0.269 -1.903,-0.336 a 11.176,11.176 0 0 0 -0.717,-0.023 15.238,15.238 0 0 0 -4.923,0.843 18.66,18.66 0 0 0 -1.694,0.671 38.207,38.207 0 0 0 -6.372,3.662 135.665,135.665 0 0 0 -2.881,2.1 104.887,104.887 0 0 0 -2.587,2.002 l -4.004,-5.371 a 3.603,3.603 0 0 1 -0.447,-0.666 2.485,2.485 0 0 1 -0.286,-1.141 2.701,2.701 0 0 1 0.532,-1.584 q 0.297,-0.42 0.76,-0.816 a 7.084,7.084 0 0 1 0.71,-0.53 q 1.64,-1.08 4.035,-1.931 a 29.902,29.902 0 0 1 1.092,-0.364 q 3.125,-0.976 6.616,-1.489 a 50.19,50.19 0 0 1 3.666,-0.407 38.896,38.896 0 0 1 2.804,-0.106 32.58,32.58 0 0 1 6.948,0.717 27.637,27.637 0 0 1 4.063,1.212 17.043,17.043 0 0 1 8.00799,6.201 15.431,15.431 0 0 1 2.249,4.951 q 0.754,2.83 0.754,6.353 v 27.197 h 8.496 v 3.662 q -1.66,0.928 -5.469,1.514 a 49.556,49.556 0 0 1 -6.028,0.565 44.225,44.225 0 0 1 -1.344995,0.021 q -2.392995,0 -4.613995,-0.806 -2.14,-0.775 -2.355,-3.656 a 8.364,8.364 0 0 1 -0.014,-0.226 z m -75,-63.573999 v 60.497999 h 8.838 a 97.177,97.177 0 0 0 13.16,-0.903 76.9,76.9 0 0 0 12.915,-2.905 q -0.044,0 0.37,1.37 a 120.501,120.501 0 0 0 0.118,0.387 12.486,12.486 0 0 1 0.518,3.018 14.434,14.434 0 0 1 0.019,0.742 q 0,2.881 -2.026,4.077 a 7.102,7.102 0 0 1 -1.427,0.62 q -1.499,0.484 -3.772,0.702 a 36.316,36.316 0 0 1 -1.637,0.119 142.245,142.245 0 0 1 -2.626,0.107 q -4.271,0.137 -10.534,0.137 a 391.234,391.234 0 0 1 -8.789,-0.098 q -4.345,-0.097 -7.739,-0.219 -3.378,-0.122 -5.039,-0.268 a 32.398,32.398 0 0 1 -0.015,-10e-4 9.625,9.625 0 0 1 -1.0310004,-0.165 q -1.4100004,-0.311 -1.9960004,-1.007 a 2.733,2.733 0 0 1 -0.461,-0.818 q -0.32,-0.864 -0.32,-2.209 v -59.619 h -9.424 v -3.857999 a 7.533,7.533 0 0 1 0.919,-0.387 q 1.54600002,-0.551 4.418,-1.076 a 66.884,66.884 0 0 1 0.278,-0.05 q 4.102,-0.7329994 8.8870008,-0.7329994 3.359,0 4.769,0.254 a 5.417,5.417 0 0 1 0.309,0.064 1.546,1.546 0 0 1 1.148,1.0559994 q 0.112,0.315 0.15,0.718 a 4.708,4.708 0 0 1 0.02,0.447 z M 135.97404,6.9274262 V 33.831425 a 40.22,40.22 0 0 1 4.917,-2.762 49.678,49.678 0 0 1 3.335,-1.437 26.539,26.539 0 0 1 5.883,-1.573 22.939,22.939 0 0 1 3.248,-0.234 26.893,26.893 0 0 1 5.161,0.468 q 4.049,0.792 6.997,2.926 a 19.591,19.591 0 0 1 6.745,8.752 23.509,23.509 0 0 1 0.14,0.354 32.965,32.965 0 0 1 1.98,8.43 40.858,40.858 0 0 1 0.217,4.266 31.629,31.629 0 0 1 -1.097,8.468 26.997,26.997 0 0 1 -2.37,5.838 q -3.466,6.299 -9.619,9.912 a 26.181,26.181 0 0 1 -10.089,3.359 33.195,33.195 0 0 1 -4.169,0.255 47.277,47.277 0 0 1 -9.534,-0.935 41.945,41.945 0 0 1 -3.234,-0.799 120.165,120.165 0 0 1 -4.019,-1.236 q -3.331,-1.094 -5.771,-2.157 V 10.052426 h -8.643 V 6.3414262 a 8.32,8.32 0 0 1 0.935,-0.36 q 1.048,-0.339 2.579,-0.611 a 34.86,34.86 0 0 1 0.612,-0.103 69.039,69.039 0 0 1 3.601,-0.473 82.962,82.962 0 0 1 2.307,-0.211 q 3.1,-0.24 5.608,-0.244 a 53.013,53.013 0 0 1 0.081,0 20.394,20.394 0 0 1 1.136,0.03 q 1.071,0.06 1.795,0.242 a 5.079,5.079 0 0 1 0.17,0.045 q 1.055,0.305 1.096,2.119 a 6.605,6.605 0 0 1 0.002,0.152 z m 0,31.5919988 v 35.302 q 0,0.043 1.238,0.344 a 97.339,97.339 0 0 0 0.398,0.096 35.976,35.976 0 0 0 1.289,0.281 q 0.625,0.125 1.341,0.25 a 81.051,81.051 0 0 0 1.52,0.25 q 2.515,0.391 5.103,0.391 a 15.681,15.681 0 0 0 5.036,-0.767 12.482,12.482 0 0 0 6.707,-5.434 22.668,22.668 0 0 0 2.567,-5.986 q 0.781,-2.806 1.098,-6.16 a 51.542,51.542 0 0 0 0.217,-4.847 47.589,47.589 0 0 0 -0.273,-5.265 q -0.286,-2.566 -0.874,-4.716 a 20.632,20.632 0 0 0 -1.27,-3.471 9.045,9.045 0 0 0 -2.368,-3.128 q -1.747,-1.444 -4.252,-1.805 a 12.295,12.295 0 0 0 -1.754,-0.12 24.225,24.225 0 0 0 -8.073,1.413 30.713,30.713 0 0 0 -0.008,0.003 q -4.029,1.416 -7.642,3.369 z m -42.96899,32.129 v -13.721 h -8.203 a 21.46,21.46 0 0 0 -2.539,0.16 q -1.208,0.144 -2.526,0.418 a 35.349,35.349 0 0 0 -0.379,0.081 11.948,11.948 0 0 0 -3.737,1.483 11.074,11.074 0 0 0 -1.439,1.056 q -2.173,1.88 -2.173,5.591 a 9.355,9.355 0 0 0 0.367,2.68 7.39,7.39 0 0 0 1.733,3.008 6.794,6.794 0 0 0 3.28,1.897 q 1.077,0.284 2.356,0.32 a 13.289,13.289 0 0 0 0.37,0.005 16.005,16.005 0 0 0 1.589,-0.084 q 0.811,-0.081 1.709,-0.24 a 28.4,28.4 0 0 0 0.608,-0.115 q 2.197,-0.44 4.248,-1.05 1.949,-0.58 3.258,-1.006 a 71.771,71.771 0 0 0 0.136,-0.044 z"
         vector-effect="non-scaling-stroke"
         id="path383"
         style="fill:#2e3440;fill-opacity:1;stroke:none" />
    </g>
  </g>
</svg>
